<?xml version="1.0" standalone="no"?>
<!DOCTYPE svg PUBLIC "-//W3C//DTD SVG 20010904//EN"
 "http://www.w3.org/TR/2001/REC-SVG-20010904/DTD/svg10.dtd">
<svg version="1.0" xmlns="http://www.w3.org/2000/svg"
 width="723.968630pt" height="562.647088pt" viewBox="0 0 723.968630 562.647088"
 preserveAspectRatio="xMidYMid meet">
<metadata>
Created by potrace 1.13, written by Peter Selinger 2001-2015
</metadata>
<g transform="translate(-75.047068,565.773550) scale(0.100000,-0.100000)"
fill="#000000" stroke="none">
<path d="M2330 5648 c-121 -20 -349 -98 -399 -137 -21 -16 -47 -53 -68 -96
-29 -61 -33 -79 -33 -152 0 -117 26 -181 102 -255 63 -61 65 -70 19 -112 -19
-17 -24 -18 -68 -5 -77 22 -490 9 -693 -22 -196 -30 -363 -118 -404 -213 -7
-17 -18 -44 -25 -59 -15 -39 -14 -158 3 -242 22 -104 36 -158 45 -170 5 -5 14
-27 20 -47 18 -54 95 -143 155 -177 74 -43 190 -78 282 -86 128 -11 118 2 110
-143 -4 -70 -11 -131 -16 -136 -7 -7 -42 -6 -100 1 -75 10 -96 9 -125 -3 -19
-8 -35 -15 -36 -17 0 -1 -4 -54 -9 -117 -5 -63 -14 -158 -19 -210 -6 -52 -13
-127 -17 -166 l-6 -70 54 -28 c54 -27 58 -28 182 -22 70 3 146 8 169 11 92 12
224 38 263 51 79 28 76 18 101 264 12 122 27 228 33 235 6 8 21 15 33 17 16 2
22 10 22 28 0 20 -7 27 -35 36 -22 7 -44 8 -58 3 -13 -5 -103 -10 -200 -12
l-177 -2 1 55 c1 30 4 89 8 131 l7 75 142 13 c133 11 332 42 475 74 121 28
164 76 274 305 60 124 77 186 64 235 -7 29 -141 195 -203 251 -24 21 -43 47
-43 56 0 22 -32 43 -93 60 -26 7 -49 16 -52 20 -2 4 8 19 23 33 l28 27 89 -11
c96 -12 369 -6 465 10 30 5 75 12 98 14 l44 5 149 -141 c82 -78 149 -145 149
-149 0 -5 -29 -8 -65 -8 -62 0 -65 -1 -72 -27 -10 -35 -10 -552 -1 -576 7 -17
27 -17 355 -11 192 3 350 8 352 10 2 2 -2 22 -9 43 -10 31 -11 86 -5 248 4
114 8 224 9 243 1 29 -3 36 -21 38 -29 4 -31 -9 -39 -262 -4 -115 -10 -221
-13 -235 l-7 -26 -250 -10 c-137 -5 -266 -8 -286 -7 -36 4 -37 4 -44 58 -8 69
-1 435 9 452 6 9 75 12 288 12 222 0 279 3 279 13 0 33 -23 37 -211 37 -103 0
-189 4 -191 9 -1 4 -25 27 -53 51 -97 83 -265 242 -265 251 0 5 25 34 55 64
86 87 115 164 115 308 0 58 -5 80 -24 111 -25 42 -108 107 -191 152 -98 53
-300 77 -445 52z m253 -39 c105 -15 135 -26 139 -52 2 -13 13 -24 28 -29 101
-28 113 -34 145 -70 39 -46 46 -77 39 -161 -9 -109 -31 -162 -91 -228 -42 -45
-62 -59 -83 -59 -15 0 -30 -6 -33 -13 -7 -19 -225 -38 -431 -38 -150 -1 -160
0 -190 22 -17 13 -42 22 -58 21 -21 -2 -40 9 -74 40 -64 59 -86 112 -87 212
-1 72 2 88 31 143 37 72 59 89 175 137 175 73 338 98 490 75z m-756 -760 c58
-7 82 -15 92 -30 10 -15 25 -19 65 -19 34 0 63 -7 86 -21 45 -27 150 -137 218
-228 15 -20 33 -41 41 -47 7 -5 15 -30 18 -55 4 -36 -1 -58 -27 -114 -59 -130
-125 -252 -153 -283 -24 -26 -72 -52 -97 -52 -9 0 -52 -9 -95 -20 -135 -34
-346 -60 -493 -60 -486 1 -636 128 -669 564 -8 106 22 161 133 250 48 39 217
82 379 96 77 6 172 15 210 20 105 11 205 11 292 -1z m-462 -1325 c50 -3 162
-1 249 5 126 9 161 9 167 -1 4 -6 6 -15 3 -19 -2 -4 -6 -25 -9 -46 -2 -21 -9
-83 -15 -138 -21 -187 -31 -228 -63 -243 -54 -26 -352 -62 -483 -59 l-95 2 6
120 c4 66 11 144 16 174 5 30 9 81 9 112 0 32 5 70 10 84 10 26 13 27 63 21
28 -3 93 -8 142 -12z"/>
<path d="M2411 5443 c-5 -21 -12 -50 -15 -65 -5 -24 -11 -28 -41 -28 -29 0
-39 -6 -61 -39 -29 -45 -36 -124 -12 -148 23 -23 59 -24 88 -3 34 24 37 24 56
5 17 -17 60 -20 69 -5 3 5 -6 21 -21 34 -24 20 -28 30 -28 82 0 32 5 86 11
119 7 41 8 64 1 73 -19 22 -37 12 -47 -25z m-41 -181 c0 -21 -27 -62 -41 -62
-15 0 -11 43 7 68 17 24 34 21 34 -6z"/>
<path d="M2664 5383 c-17 -53 -24 -63 -49 -63 -15 0 -32 -6 -38 -13 -38 -41
-58 -126 -37 -152 16 -19 74 -19 90 0 16 20 25 19 59 -6 30 -22 72 -23 79 -2
2 7 -8 17 -22 23 -41 15 -50 53 -31 128 9 35 13 73 10 83 -8 25 -54 26 -61 2z
m-34 -137 c0 -17 -28 -41 -37 -32 -10 9 16 58 27 51 6 -3 10 -12 10 -19z"/>
<path d="M2042 5343 c-20 -8 -52 -78 -59 -129 -5 -39 -3 -49 12 -60 25 -19 29
-18 64 12 l31 26 36 -31 c36 -32 60 -34 92 -9 20 17 14 28 -17 28 -40 0 -61
32 -61 92 0 42 -3 49 -30 63 -30 15 -45 17 -68 8z m9 -96 c-10 -9 -11 -8 -5 6
3 10 9 15 12 12 3 -3 0 -11 -7 -18z"/>
<path d="M1164 4559 c4 -111 8 -145 20 -158 15 -14 17 -14 32 1 14 14 15 27 6
104 -6 49 -10 108 -11 132 0 51 -6 62 -32 62 -20 0 -20 -5 -15 -141z"/>
<path d="M1458 4598 c-3 -47 -6 -52 -30 -59 -22 -6 -30 -2 -42 16 -19 28 -50
23 -72 -11 -9 -12 -28 -24 -42 -26 -26 -3 -27 -6 -27 -58 -1 -71 9 -100 35
-100 15 0 26 11 37 38 l16 37 10 -35 c17 -64 26 -80 48 -80 20 0 20 3 14 74
-8 84 -3 101 25 86 16 -8 20 -24 22 -83 3 -64 5 -72 23 -72 18 0 21 9 28 84 6
66 12 89 27 104 20 18 20 18 1 43 -11 14 -17 33 -14 44 6 24 -13 50 -38 50
-15 0 -19 -9 -21 -52z"/>
<path d="M1596 4507 c-89 -85 -81 -188 17 -204 28 -4 42 0 70 21 29 23 42 26
71 20 26 -4 43 -1 62 11 23 15 27 15 43 1 24 -22 58 -20 73 4 15 23 38 27 38
7 0 -8 9 -22 20 -32 36 -32 46 -7 30 74 -16 87 -36 99 -83 53 l-30 -31 -16 32
c-15 30 -19 32 -79 34 -61 3 -63 2 -82 -30 -11 -17 -20 -43 -20 -57 0 -21 -8
-29 -44 -42 -56 -21 -72 -8 -62 47 5 27 17 43 46 63 44 30 48 55 9 60 -19 2
-37 -7 -63 -31z"/>
<path d="M2245 4465 c-9 -34 -23 -59 -36 -66 -27 -14 -40 -1 -48 48 -5 32 -10
38 -31 38 -31 0 -38 -30 -20 -88 8 -28 8 -43 1 -50 -25 -25 2 -87 37 -87 16 0
42 41 42 68 0 34 34 25 38 -11 4 -34 39 -38 47 -4 14 61 33 192 29 199 -3 4
-14 8 -24 8 -14 0 -23 -14 -35 -55z"/>
<path d="M1390 3405 c-5 -14 -10 -31 -10 -37 0 -6 -9 -8 -22 -4 -70 20 -77 19
-87 -7 -15 -40 -8 -159 11 -170 29 -19 48 -1 48 45 l0 43 43 -48 c24 -26 51
-47 59 -47 23 0 41 27 32 47 -4 10 -8 59 -8 108 l-2 90 -27 3 c-21 3 -29 -2
-37 -23z"/>
<path d="M1536 3368 c-29 -44 -28 -67 4 -75 11 -3 20 -13 21 -22 0 -9 1 -38 2
-65 2 -52 20 -75 51 -63 13 5 16 23 16 105 0 139 -6 162 -39 162 -21 0 -34
-10 -55 -42z"/>
<path d="M6415 5244 c-145 -38 -274 -115 -311 -186 -17 -33 -18 -117 -2 -155
24 -55 79 -121 133 -158 30 -21 55 -42 55 -45 0 -4 -51 -59 -114 -121 -63 -62
-117 -123 -121 -136 -5 -22 -10 -23 -90 -23 -46 0 -95 -4 -110 -10 l-25 -10 1
-245 c2 -277 2 -279 74 -295 22 -5 112 -12 200 -15 88 -3 187 -8 220 -10 42
-4 67 -1 79 8 18 13 18 15 1 44 -17 29 -17 45 -8 219 5 103 7 199 5 212 -3 13
-22 35 -44 50 -33 21 -59 28 -149 36 l-109 11 18 27 c9 14 66 73 125 131 l109
105 56 -18 c116 -36 160 -43 287 -45 l130 -1 98 -94 c53 -51 97 -97 97 -102 0
-5 -6 -10 -12 -12 -158 -42 -222 -82 -253 -158 -46 -114 6 -234 141 -324 64
-43 201 -106 278 -128 l58 -17 -7 -82 c-4 -45 -11 -125 -14 -177 l-6 -95 -30
1 c-16 1 -56 5 -89 9 -53 7 -58 6 -55 -10 5 -22 52 -36 229 -65 157 -26 170
-32 170 -80 0 -21 -3 -52 -6 -69 -6 -27 -10 -31 -40 -31 l-34 0 6 43 c5 34 2
46 -16 65 -41 43 -83 11 -52 -40 15 -25 15 -29 -1 -46 -39 -43 -13 -72 65 -72
l58 0 0 -54 c0 -53 13 -78 30 -60 5 5 14 77 21 159 16 192 14 195 -98 214
-124 21 -113 9 -113 119 0 103 22 231 41 243 7 4 33 1 58 -7 25 -8 84 -23 131
-35 291 -71 462 -65 496 17 17 41 19 299 3 375 -14 63 -65 118 -136 144 -26 9
-70 28 -98 41 -27 13 -93 32 -145 43 -52 11 -120 26 -150 34 -55 15 -165 31
-292 42 l-68 7 -105 106 c-95 97 -103 108 -87 120 9 7 37 28 62 46 63 46 90
104 90 193 0 90 -24 145 -87 205 -56 51 -154 109 -239 139 -43 15 -90 22 -174
24 -63 2 -124 2 -135 -1z m227 -34 c21 -6 42 -19 47 -29 6 -10 33 -23 68 -31
79 -19 139 -55 170 -101 14 -21 34 -41 44 -44 43 -14 61 -97 38 -178 -14 -50
-70 -112 -133 -145 -48 -25 -59 -27 -181 -27 -178 0 -311 36 -423 112 -76 53
-142 149 -142 209 0 84 165 210 308 234 69 11 162 11 204 0z m-537 -840 c77
-5 163 -15 192 -21 51 -12 52 -13 59 -54 3 -23 1 -91 -5 -150 -6 -60 -11 -144
-11 -188 l0 -80 -152 6 c-260 12 -296 16 -302 41 -11 45 -7 428 5 442 14 17
31 17 214 4z m970 -12 c19 -9 28 -9 37 0 7 7 28 12 48 12 54 0 223 -27 345
-55 61 -14 120 -28 132 -30 12 -3 25 -14 28 -25 4 -14 15 -20 34 -20 41 0 88
-19 96 -38 6 -16 7 -16 19 0 11 15 15 16 42 2 88 -46 104 -87 104 -271 0 -164
-9 -195 -65 -219 -92 -38 -360 6 -692 114 -136 45 -280 115 -341 167 -43 38
-92 124 -92 163 0 60 58 132 137 172 77 38 127 47 168 28z"/>
<path d="M6621 5043 c-6 -21 -11 -50 -11 -64 0 -16 -13 -40 -35 -62 -34 -35
-41 -59 -29 -91 7 -19 45 -21 63 -3 10 10 16 7 33 -15 12 -18 29 -28 45 -28
14 0 38 -8 53 -17 24 -13 34 -15 54 -5 20 9 28 8 40 -3 28 -29 38 -18 31 33
-3 26 -2 59 3 73 19 48 25 153 10 172 -20 27 -45 12 -53 -31 -9 -49 -30 -80
-57 -84 -22 -3 -39 -26 -59 -83 l-11 -30 -20 25 c-18 22 -20 36 -17 135 4 96
2 110 -13 113 -12 2 -20 -7 -27 -35z m179 -191 c0 -27 -15 -52 -32 -52 -13 0
-9 55 4 68 19 19 28 14 28 -16z"/>
<path d="M6381 4979 c-21 -13 -31 -28 -36 -57 -11 -64 27 -110 79 -96 15 4 27
1 33 -8 12 -21 44 -30 59 -17 12 10 10 16 -12 36 -23 21 -25 30 -22 79 l3 56
-37 12 c-33 12 -41 11 -67 -5z m49 -53 c0 -30 -26 -54 -42 -38 -8 8 -6 18 6
36 21 32 36 33 36 2z"/>
<path d="M6070 4231 c-26 -53 -34 -56 -66 -26 -53 49 -91 25 -44 -28 16 -19
30 -41 30 -49 0 -9 -16 -32 -35 -53 -28 -29 -33 -40 -24 -51 17 -21 32 -17 64
16 16 17 34 30 41 30 6 0 24 -16 38 -35 15 -19 34 -35 42 -35 24 0 28 29 7 53
-52 60 -53 67 -20 128 31 56 32 89 3 89 -9 0 -25 -18 -36 -39z"/>
<path d="M6164 4179 c-18 -41 -18 -42 4 -59 16 -14 22 -29 22 -62 0 -52 11
-71 36 -66 17 3 19 13 18 101 -1 61 -6 102 -14 112 -22 27 -46 17 -66 -26z"/>
<path d="M6950 4165 c0 -16 6 -25 15 -25 9 0 15 9 15 25 0 16 -6 25 -15 25 -9
0 -15 -9 -15 -25z"/>
<path d="M7194 4120 c-5 -30 -13 -45 -30 -52 -13 -6 -24 -16 -24 -21 0 -6 -8
-3 -18 6 -26 24 -47 21 -60 -8 -6 -14 -18 -25 -27 -25 -19 0 -19 -24 0 -40 13
-11 20 -11 40 0 29 15 26 18 49 -37 18 -41 40 -60 50 -44 3 4 -3 32 -14 62
-25 67 -25 67 4 62 21 -4 24 -12 29 -65 5 -62 17 -85 36 -73 8 4 9 28 5 69
l-6 63 32 6 c23 5 31 12 28 24 -2 10 -13 19 -25 21 -18 3 -22 11 -25 45 -2 30
-8 43 -20 45 -14 3 -19 -6 -24 -38z"/>
<path d="M6960 4026 c0 -51 17 -96 37 -96 27 0 9 133 -20 138 -14 3 -17 -4
-17 -42z"/>
<path d="M7343 4018 c-40 -19 -49 -76 -20 -119 24 -35 56 -45 88 -29 31 17 24
40 -12 38 -58 -5 -66 52 -10 77 12 5 20 17 19 25 -4 19 -36 23 -65 8z"/>
<path d="M7463 4003 c-41 -4 -43 -6 -43 -35 0 -43 26 -71 53 -57 17 10 24 6
44 -20 19 -23 30 -30 45 -25 12 4 28 -1 41 -13 28 -24 90 -45 110 -37 9 3 19
15 22 25 8 24 29 20 33 -7 8 -40 21 -34 47 20 20 42 24 60 16 70 -6 7 -8 15
-5 19 10 10 -7 47 -22 47 -9 0 -14 -11 -14 -29 0 -45 -10 -61 -36 -61 -17 0
-24 6 -24 20 0 20 -25 38 -37 27 -3 -3 -8 -26 -10 -52 -3 -26 -11 -45 -18 -45
-17 0 -41 31 -49 64 -6 26 -10 28 -41 22 -31 -6 -35 -4 -35 14 0 25 -17 61
-28 58 -4 -1 -26 -3 -49 -5z"/>
<path d="M4650 4561 c0 -26 37 -48 53 -32 16 16 -3 45 -32 49 -16 3 -21 -2
-21 -17z"/>
<path d="M3277 4495 c-21 -50 -35 -55 -62 -25 -38 42 -72 9 -36 -36 28 -35 27
-41 -14 -98 -27 -38 -32 -52 -24 -67 13 -26 37 -24 49 4 12 27 35 57 45 57 4
0 25 -20 47 -45 38 -43 72 -58 80 -34 2 7 12 7 31 0 39 -15 72 -14 86 3 18 22
2 46 -30 46 -34 0 -34 1 -14 75 8 31 12 62 8 70 -7 19 -45 29 -81 22 -25 -5
-27 -3 -27 31 0 29 -4 38 -20 40 -15 2 -24 -8 -38 -43z m89 -85 c19 0 18 -21
-3 -70 -20 -46 -29 -46 -60 0 -28 41 -28 50 -2 84 21 27 21 27 36 7 8 -12 21
-21 29 -21z"/>
<path d="M4781 4468 c-16 -79 -14 -146 4 -213 18 -65 36 -92 55 -80 9 5 10 26
5 70 -6 57 -4 65 13 74 25 13 39 -1 50 -55 6 -29 13 -40 29 -42 28 -4 37 25
23 80 -18 68 -33 82 -85 79 -38 -2 -45 1 -45 16 0 34 12 63 26 63 20 0 29 27
14 45 -7 8 -27 15 -46 15 -31 0 -33 -2 -43 -52z"/>
<path d="M4310 4415 c0 -74 3 -87 22 -105 28 -25 49 -25 71 0 16 19 19 19 39
6 15 -11 26 -12 39 -5 11 6 20 6 24 -1 13 -22 47 -10 58 20 14 37 18 37 45 1
27 -36 109 -78 124 -63 8 8 6 21 -6 45 -9 20 -16 60 -16 91 0 53 -1 56 -25 56
-24 0 -31 -15 -26 -57 3 -24 -9 -13 -29 27 -24 47 -40 56 -69 41 -13 -7 -27
-8 -38 -2 -32 16 -93 32 -101 27 -5 -3 -15 -23 -22 -46 -18 -53 -30 -60 -30
-16 0 50 -9 66 -36 66 -23 0 -24 -2 -24 -85z m180 -33 c0 -13 -4 -20 -10 -17
-5 3 -10 21 -10 38 0 24 3 28 10 17 5 -8 10 -25 10 -38z"/>
<path d="M5270 4483 c0 -9 10 -27 22 -40 l22 -23 -22 -45 c-24 -51 -27 -71
-11 -80 30 -19 98 100 85 149 -10 41 -96 76 -96 39z"/>
<path d="M4892 4434 c5 -27 36 -42 48 -24 14 22 7 35 -24 38 -22 3 -27 0 -24
-14z"/>
<path d="M5016 4418 c-9 -12 -16 -30 -16 -39 0 -9 -7 -22 -15 -29 -8 -7 -15
-17 -15 -22 0 -19 75 -88 95 -88 29 0 37 10 23 27 -9 11 -8 21 6 44 19 32 16
90 -6 117 -16 19 -55 14 -72 -10z"/>
<path d="M5149 4378 c-1 -13 -1 -25 -1 -28 -1 -3 2 -24 6 -47 5 -33 3 -43 -8
-43 -8 0 -16 -7 -20 -15 -10 -26 5 -45 35 -45 43 0 56 31 54 120 l-2 75 -32 3
c-26 3 -31 0 -32 -20z"/>
<path d="M5302 4228 c2 -15 10 -23 23 -23 30 0 27 39 -3 43 -20 3 -23 0 -20
-20z"/>
<path d="M6975 3431 c-7 -13 -19 -102 -36 -289 -15 -166 -27 -157 194 -158
156 -2 179 -4 252 -28 96 -31 95 -31 95 -8 0 18 -26 32 -110 62 -20 7 -111 15
-214 18 l-179 5 6 91 c3 50 11 136 17 190 9 83 9 102 -3 114 -11 10 -17 11
-22 3z"/>
<path d="M7103 3362 c-11 -7 -16 -37 -29 -174 -6 -58 -4 -68 10 -74 23 -9 26
-4 33 56 l6 53 21 -25 c12 -14 29 -39 38 -57 19 -34 52 -42 63 -13 4 9 10 59
12 109 5 82 4 93 -12 99 -23 9 -33 -10 -29 -59 3 -47 -3 -77 -16 -77 -4 0 -21
36 -36 80 -28 78 -40 95 -61 82z"/>
<path d="M5529 2805 c-129 -16 -307 -59 -369 -89 -63 -31 -90 -81 -90 -169 0
-138 71 -224 235 -286 207 -78 759 -81 1085 -5 36 8 74 19 85 24 11 5 29 11
41 14 11 4 34 20 50 37 25 26 29 38 28 82 0 61 -20 102 -76 163 -47 51 -145
114 -178 114 -35 0 -19 -20 45 -56 118 -65 193 -173 169 -243 -11 -31 -96 -77
-160 -87 l-42 -6 18 65 c10 37 31 94 46 127 21 48 25 63 15 73 -18 17 -58 -32
-72 -89 -13 -50 -30 -64 -55 -43 -11 9 -14 23 -11 44 6 40 -1 55 -23 55 -21 0
-37 -56 -26 -87 4 -9 -1 -32 -10 -49 -15 -27 -16 -35 -5 -48 18 -21 33 -20 59
4 31 29 42 25 42 -19 l0 -40 -52 -10 c-154 -30 -691 -38 -823 -12 -148 29
-236 70 -294 136 -39 45 -51 74 -51 125 0 86 47 145 132 168 43 12 48 8 48
-28 0 -34 27 -61 36 -36 3 9 4 32 2 51 -4 31 -1 36 27 44 154 48 520 66 741
36 131 -17 190 -34 308 -86 81 -37 127 -44 111 -19 -11 18 -137 77 -224 104
-45 14 -131 33 -189 41 -129 18 -423 18 -573 0z"/>
<path d="M3635 2628 c-218 -24 -225 -25 -225 -42 0 -36 37 -37 285 -6 44 5
117 13 163 16 77 7 83 9 80 28 -3 18 -10 21 -63 22 -33 1 -141 -7 -240 -18z"/>
<path d="M5633 2603 c-7 -31 -14 -39 -36 -41 -30 -4 -38 -36 -12 -46 11 -4 15
-21 15 -66 0 -52 3 -61 17 -58 11 2 20 19 27 52 11 48 19 58 61 71 19 6 19 7
-5 27 -18 15 -25 30 -25 56 0 53 -30 56 -42 5z"/>
<path d="M5468 2580 c-13 -21 -38 -27 -38 -10 0 6 -8 10 -19 10 -16 0 -20 -11
-26 -66 -6 -55 -4 -69 10 -83 15 -15 19 -13 49 23 34 40 56 42 56 5 0 -29 29
-81 43 -76 7 2 11 13 9 23 -2 10 -5 51 -9 89 -3 39 -10 78 -15 88 -12 23 -45
22 -60 -3z"/>
<path d="M3954 2582 c-6 -4 -11 -38 -12 -77 -2 -74 -38 -375 -46 -383 -11 -10
-251 -22 -373 -18 -141 5 -165 -2 -123 -36 21 -17 39 -18 243 -13 227 5 279
12 318 44 20 16 22 22 13 42 -7 15 -8 50 -3 94 24 229 30 308 24 324 -7 22
-27 32 -41 23z"/>
<path d="M5273 2503 c-10 -80 -4 -113 21 -113 13 0 27 69 30 150 1 29 -3 36
-20 38 -20 3 -22 -4 -31 -75z"/>
<path d="M5746 2509 c-57 -67 -19 -170 56 -155 34 7 59 9 104 5 16 -1 36 9 55
27 39 37 37 87 -4 118 -26 19 -29 19 -54 4 -14 -8 -31 -32 -39 -53 -7 -21 -16
-41 -21 -45 -14 -13 -58 -19 -72 -11 -26 17 9 89 50 103 12 4 12 7 0 21 -20
25 -46 21 -75 -14z m204 -45 c0 -13 -21 -44 -30 -44 -14 0 -12 24 2 38 13 13
28 16 28 6z"/>
<path d="M3385 2343 c0 -185 0 -188 21 -191 21 -3 22 2 29 113 4 65 4 149 -1
189 -8 60 -12 71 -29 74 -19 3 -20 -3 -20 -185z"/>
<path d="M6017 2493 c-4 -3 -7 -30 -7 -58 0 -68 20 -88 53 -56 30 27 35 27 47
-4 5 -14 17 -25 25 -25 13 0 15 11 13 61 -4 74 -23 95 -58 64 -20 -18 -21 -18
-43 3 -13 12 -27 19 -30 15z"/>
<path d="M3797 2434 c-16 -22 -17 -29 -7 -55 8 -19 11 -53 7 -91 -6 -65 4 -98
28 -98 15 0 38 34 29 42 -2 3 0 46 6 97 6 50 9 100 5 111 -9 28 -46 25 -68 -6z"/>
<path d="M3550 2434 c0 -9 16 -34 35 -56 l34 -41 -41 -58 c-39 -57 -45 -89
-14 -89 7 0 32 21 54 47 38 45 41 47 65 34 48 -26 77 8 37 44 -24 21 -25 43
-5 69 37 48 -2 90 -39 43 -27 -33 -33 -33 -62 -2 -26 28 -64 34 -64 9z"/>
<path d="M4250 2405 c-8 -10 -9 -19 0 -34 9 -17 15 -19 30 -11 25 14 26 36 1
49 -14 8 -22 7 -31 -4z"/>
<path d="M4378 2359 c-10 -7 -10 -13 -2 -26 10 -15 25 -18 94 -16 83 1 105 9
92 29 -8 14 -166 24 -184 13z"/>
<path d="M4393 2253 c-3 -7 -2 -20 1 -29 5 -13 19 -16 77 -12 47 2 73 8 79 18
14 23 1 28 -79 32 -53 3 -75 0 -78 -9z"/>
<path d="M4224 2245 c-4 -9 0 -23 9 -32 21 -21 49 -9 45 19 -4 28 -45 38 -54
13z"/>
<path d="M5747 2148 c-4 -24 -11 -63 -16 -87 -10 -52 -5 -73 17 -69 11 2 20
24 29 68 17 80 14 124 -8 128 -12 2 -18 -8 -22 -40z"/>
<path d="M5462 1938 c-7 -24 -16 -72 -22 -108 -6 -36 -20 -93 -30 -127 -11
-34 -20 -68 -20 -75 0 -7 -9 -19 -19 -25 -31 -19 -16 -51 27 -59 34 -7 227 0
416 14 68 5 91 11 100 24 8 14 7 20 -7 30 -16 12 -15 20 23 128 23 63 50 124
61 136 18 19 18 53 0 54 -3 1 -64 3 -136 5 -71 2 -141 6 -155 9 -14 2 -61 10
-105 16 -44 6 -89 14 -101 16 -18 5 -23 -1 -32 -38z m186 -34 c59 -9 110 -20
114 -23 4 -4 1 -17 -8 -29 -11 -16 -21 -21 -39 -16 -20 5 -28 0 -43 -26 l-19
-31 -22 36 c-33 56 -51 44 -73 -49 -10 -44 -16 -88 -12 -98 6 -21 44 -25 44
-4 0 7 7 20 16 27 14 11 18 11 29 -4 7 -9 22 -17 33 -17 11 0 24 -5 28 -11 7
-12 92 -7 127 6 13 5 17 2 17 -13 0 -11 -6 -24 -12 -30 -15 -11 -360 -37 -383
-28 -11 4 -13 11 -5 28 13 32 37 132 49 206 10 62 24 92 43 92 5 0 57 -7 116
-16z m267 -34 c8 -12 -24 -107 -40 -119 -5 -5 -21 -12 -34 -16 -23 -7 -24 -6
-18 29 3 21 0 53 -8 76 l-14 40 54 0 c30 0 57 -5 60 -10z m-175 -110 c0 -29
-11 -50 -26 -50 -17 0 -18 33 -3 61 12 23 29 16 29 -11z"/>
<path d="M5169 1371 c-112 -24 -202 -65 -241 -109 -29 -34 -30 -38 -25 -102
17 -205 145 -286 494 -313 l158 -13 -4 -69 c-2 -39 -8 -74 -15 -78 -6 -5 -47
-6 -92 -4 -44 3 -88 0 -97 -5 -19 -10 -22 -34 -6 -43 14 -9 534 -9 548 -1 8 5
8 13 1 27 -10 17 -22 19 -147 19 l-136 0 5 64 c3 35 9 69 12 75 5 7 60 11 162
11 270 0 541 49 596 107 20 22 23 35 24 111 l0 87 -61 61 c-42 42 -72 64 -96
69 -19 3 -70 18 -114 32 -204 64 -348 84 -635 89 -212 3 -257 1 -331 -15z
m626 -46 c55 -8 120 -19 145 -25 25 -5 58 -12 73 -15 15 -3 37 -17 49 -30 18
-20 31 -25 72 -25 115 0 202 -75 213 -185 7 -68 -9 -83 -119 -112 -160 -43
-216 -46 -658 -43 -90 1 -304 21 -359 34 -31 7 -73 21 -94 29 l-38 17 2 83 c3
90 -2 107 -32 107 -17 0 -19 -7 -19 -64 0 -36 -5 -68 -10 -71 -17 -11 -47 36
-60 93 -14 62 -3 101 36 127 22 14 25 14 36 -5 21 -34 46 -25 50 17 3 37 4 38
68 56 36 9 103 21 150 27 113 12 370 4 495 -15z"/>
<path d="M5330 1201 c0 -10 -6 -24 -14 -30 -10 -8 -12 -34 -8 -109 2 -53 9
-103 15 -110 17 -22 37 7 38 57 2 88 8 96 86 117 22 6 2 34 -31 42 -21 6 -32
15 -34 30 -4 29 -52 32 -52 3z"/>
<path d="M6163 1158 c-5 -7 -16 -28 -23 -46 -14 -37 -36 -52 -74 -52 -35 0
-34 -27 2 -47 24 -14 29 -23 28 -51 -1 -51 19 -50 44 3 16 33 32 50 58 61 54
22 66 54 20 54 -17 0 -20 4 -15 30 11 50 -15 80 -40 48z"/>
<path d="M5110 1125 c-9 -11 -8 -22 7 -52 17 -37 32 -43 72 -32 9 3 17 -7 22
-29 4 -19 11 -38 17 -44 22 -22 32 5 32 83 0 90 -9 101 -66 80 -23 -8 -39 -9
-53 -2 -14 8 -22 7 -31 -4z"/>
<path d="M5643 1128 c-35 -9 -88 -69 -99 -112 -4 -18 -12 -26 -23 -24 -28 6
-23 33 14 72 28 30 33 41 24 52 -24 30 -62 12 -98 -46 -24 -40 -26 -58 -9 -94
14 -33 41 -41 79 -25 23 9 33 9 42 0 18 -18 68 -13 113 14 l43 26 21 -21 c23
-23 40 -18 80 25 l25 27 5 -39 c4 -29 9 -38 25 -38 18 0 24 9 42 74 3 12 7 12
20 -2 16 -15 15 -18 -5 -40 -20 -21 -21 -25 -7 -37 32 -27 108 21 98 62 -3 13
-10 28 -15 35 -5 7 -7 21 -4 31 10 31 -19 48 -57 34 -23 -9 -34 -9 -44 0 -11
9 -23 8 -50 -1 -25 -10 -38 -10 -46 -2 -16 16 -47 13 -54 -5 -5 -13 -10 -11
-32 9 -34 31 -49 36 -88 25z m42 -58 c9 -15 -22 -60 -40 -60 -21 0 -19 40 3
56 21 16 29 17 37 4z"/>
<path d="M3771 1191 c-7 -5 -100 -9 -205 -9 -105 -1 -204 -5 -221 -10 l-29 -8
-4 -180 -3 -180 33 -24 c28 -20 43 -24 93 -22 33 2 108 -2 167 -7 123 -12 169
-3 199 39 15 21 20 54 25 191 4 91 4 178 0 193 -7 27 -29 34 -55 17z m3 -76
c5 -14 -1 -128 -10 -172 -3 -19 -7 -20 -28 -10 -20 10 -23 17 -19 47 7 47 -22
74 -69 68 -18 -3 -40 0 -50 5 -13 9 -21 7 -36 -6 -23 -21 -36 -21 -52 -2 -16
20 -49 19 -57 -1 -3 -8 4 -25 16 -38 27 -29 27 -43 -5 -89 -26 -39 -29 -77 -6
-85 7 -2 28 13 46 33 l34 37 19 -21 c16 -19 25 -21 78 -15 33 4 75 16 94 27
l34 20 -5 -47 c-3 -26 -10 -52 -15 -57 -6 -6 -79 -7 -191 -3 l-182 7 0 149 c0
145 1 149 23 158 12 5 101 9 198 9 148 1 178 -1 183 -14z m-143 -167 c-18 -35
-19 -36 -35 -19 -20 23 -20 37 2 66 16 22 18 23 35 7 16 -17 16 -19 -2 -54z"/>
<path d="M4001 992 c-12 -23 1 -45 25 -40 26 5 29 34 5 47 -16 9 -22 8 -30 -7z"/>
<path d="M4123 1003 c-7 -2 -13 -16 -13 -30 l0 -26 79 6 c91 6 129 21 110 43
-8 10 -33 14 -88 13 -42 0 -82 -3 -88 -6z"/>
<path d="M4188 910 c-84 -5 -98 -12 -81 -38 20 -31 183 -7 183 27 0 14 -21 17
-102 11z"/>
<path d="M4000 885 c-10 -13 -10 -19 5 -35 28 -31 71 4 44 36 -15 18 -33 18
-49 -1z"/>
<path d="M5247 604 c-4 -4 -7 -32 -8 -63 0 -31 -4 -81 -9 -111 -5 -30 -14
-102 -20 -160 -10 -96 -9 -106 7 -118 26 -19 53 17 53 73 0 23 7 103 16 178
19 165 17 201 -11 205 -12 2 -24 0 -28 -4z"/>
<path d="M5883 578 c-6 -7 -13 -48 -17 -90 -4 -42 -16 -136 -26 -210 -11 -73
-20 -148 -20 -166 l0 -33 -62 6 c-52 4 -237 11 -493 19 -34 1 -40 -2 -43 -21
-5 -36 23 -39 414 -48 245 -6 272 -5 287 10 34 34 16 62 -29 45 -34 -13 -37
-10 -23 26 6 16 15 58 19 94 5 36 15 114 24 174 19 131 20 178 4 194 -15 15
-23 15 -35 0z"/>
<path d="M5522 487 c-10 -12 -19 -61 -22 -117 l-1 -25 -22 26 c-12 15 -30 40
-39 58 -18 32 -45 40 -66 19 -19 -19 -16 -172 4 -189 14 -12 19 -10 38 14 l22
27 24 -25 c35 -37 71 -31 87 15 17 50 17 185 -1 199 -10 8 -16 8 -24 -2z"/>
<path d="M5616 457 c-14 -10 -18 -22 -13 -43 3 -17 0 -40 -8 -54 -19 -34 -18
-47 5 -70 38 -38 170 -21 178 23 3 15 -5 17 -57 17 -34 0 -61 2 -61 5 0 2 7
22 16 44 21 54 16 85 -16 89 -14 2 -34 -3 -44 -11z"/>
</g>
</svg>
