<?xml version="1.0" standalone="no"?>
<!DOCTYPE svg PUBLIC "-//W3C//DTD SVG 20010904//EN"
 "http://www.w3.org/TR/2001/REC-SVG-20010904/DTD/svg10.dtd">
<svg version="1.0" xmlns="http://www.w3.org/2000/svg"
 width="557.773651pt" height="499.646749pt" viewBox="0 0 557.773651 499.646749"
 preserveAspectRatio="xMidYMid meet">
<metadata>
Created by potrace 1.13, written by Peter Selinger 2001-2015
</metadata>
<g transform="translate(-65.226349,505.646749) scale(0.100000,-0.100000)"
fill="#000000" stroke="none">
<path d="M3400 5049 c-25 -5 -79 -16 -121 -25 -181 -35 -403 -123 -485 -193
-60 -50 -74 -61 -83 -61 -20 0 -133 -137 -161 -194 -35 -72 -55 -179 -46 -246
7 -54 50 -186 67 -206 6 -7 8 -18 5 -23 -4 -5 -1 -13 4 -16 6 -4 16 -17 21
-28 43 -94 137 -201 231 -263 105 -69 200 -97 338 -98 177 -1 350 36 508 109
41 19 95 50 121 68 96 68 96 68 117 49 34 -31 170 -131 210 -154 22 -12 41
-25 44 -28 3 -3 21 -14 40 -24 19 -11 40 -24 45 -28 22 -18 226 -150 330 -212
61 -37 127 -82 148 -101 39 -36 74 -44 95 -23 18 18 15 48 -5 55 -10 4 -76 42
-147 85 -71 43 -130 78 -132 78 -1 0 -31 19 -65 43 -93 64 -113 76 -129 84 -8
4 -40 23 -70 43 -30 20 -82 54 -115 76 -82 53 -195 143 -202 161 -4 9 11 31
39 59 108 105 181 236 194 349 7 56 -12 195 -27 195 -5 0 -9 8 -9 18 0 9 -8
31 -17 47 -9 17 -23 44 -32 60 -37 67 -66 105 -151 198 -107 116 -192 150
-385 153 -71 1 -150 -2 -175 -7z m188 -35 c12 -4 22 -12 22 -20 0 -10 20 -12
83 -11 101 2 130 -10 220 -96 87 -83 159 -192 207 -314 20 -53 9 -217 -19
-278 -67 -145 -217 -291 -416 -407 -178 -104 -457 -155 -635 -117 -167 35
-321 162 -402 330 -77 160 -94 274 -59 397 40 137 231 309 438 396 100 42 346
105 413 106 19 0 42 5 50 10 17 11 64 13 98 4z"/>
<path d="M3350 4635 c-5 -13 -13 -71 -17 -127 l-8 -103 -43 3 c-37 3 -46 -1
-76 -33 -40 -42 -63 -103 -72 -191 -6 -54 -4 -66 15 -93 31 -43 77 -43 125 0
l35 30 10 -39 c22 -79 89 -105 127 -47 20 30 11 45 -26 45 -35 0 -40 13 -40
97 0 47 9 91 31 157 30 85 31 97 26 188 -3 54 -11 107 -17 118 -16 29 -58 26
-70 -5z m-62 -314 c12 -10 22 -27 22 -37 0 -35 -79 -144 -103 -144 -13 0 -1
113 14 143 10 20 39 57 44 57 1 0 12 -8 23 -19z"/>
<path d="M3802 4648 c-10 -13 -45 -154 -57 -231 -5 -34 -9 -37 -28 -31 -69 22
-123 -6 -165 -84 -62 -117 -63 -218 -3 -261 36 -26 71 -26 120 -1 l38 19 24
-26 c35 -37 67 -47 95 -28 32 21 32 55 0 55 -13 0 -29 7 -36 15 -17 21 -8 102
18 156 34 72 75 274 69 342 -6 72 -45 111 -75 75z m-99 -349 c9 -17 17 -42 17
-55 0 -58 -51 -134 -101 -149 -70 -22 -59 133 14 213 28 30 49 28 70 -9z"/>
<path d="M2864 4440 c-39 -15 -109 -117 -117 -169 -2 -11 -6 -24 -10 -27 -14
-14 -7 -106 10 -135 23 -39 72 -40 126 -2 39 27 40 27 51 9 42 -73 101 -94
151 -54 25 19 26 23 11 33 -9 7 -26 10 -39 8 -60 -11 -91 82 -63 192 24 95 22
117 -15 138 -33 18 -71 21 -105 7z m52 -117 c-10 -98 -58 -173 -110 -173 -12
0 -16 11 -16 43 1 73 70 197 112 197 20 0 20 -4 14 -67z"/>
<path d="M2515 3689 c-83 -83 -158 -157 -168 -164 -13 -9 -64 -11 -205 -7
-267 7 -457 -14 -715 -78 -253 -63 -419 -134 -514 -221 -40 -36 -103 -122
-103 -140 0 -5 -11 -28 -25 -50 -37 -58 -92 -187 -111 -260 -31 -117 -28 -285
6 -364 37 -87 59 -120 118 -179 37 -37 97 -85 132 -108 145 -92 360 -155 565
-165 155 -8 149 -2 141 -137 -7 -133 -15 -183 -30 -194 -6 -5 -69 -14 -141
-21 -71 -6 -179 -16 -240 -23 -60 -6 -126 -12 -146 -13 -19 -1 -41 -5 -47 -9
-17 -10 -15 -52 4 -81 13 -20 16 -59 15 -240 0 -119 -3 -220 -6 -224 -6 -10
12 -255 28 -375 15 -121 44 -147 102 -95 14 12 43 18 100 22 44 2 118 12 165
21 292 58 462 77 695 77 99 0 198 4 220 9 25 6 44 5 49 0 17 -17 54 -11 69 10
15 21 14 35 -33 365 -28 199 -41 428 -28 490 12 58 12 85 1 96 -4 4 -161 4
-348 -1 -187 -4 -342 -6 -344 -4 -5 4 -1 302 4 316 3 8 58 22 138 37 288 51
730 216 902 337 72 51 178 153 230 224 17 22 40 53 51 68 32 40 63 99 81 151
12 36 14 68 9 151 -9 149 -15 187 -37 244 -14 37 -17 64 -13 97 6 45 5 46 -42
86 -69 56 -89 68 -174 96 -91 31 -202 55 -290 63 -85 7 -110 12 -110 23 0 5
54 66 120 135 72 75 120 133 120 145 0 16 -25 41 -42 41 -2 0 -71 -68 -153
-151z m0 -263 c184 -16 214 -21 323 -59 51 -17 62 -25 59 -39 -4 -12 8 -28 34
-49 71 -56 109 -163 123 -344 8 -100 -2 -139 -35 -143 -40 -4 -46 7 -39 78 8
79 4 97 -22 106 -33 10 -49 -18 -58 -97 -6 -58 -13 -77 -29 -89 -67 -47 -68
-48 -46 -66 11 -8 26 -19 33 -23 9 -5 16 -36 19 -85 l6 -78 -85 -83 c-76 -73
-101 -90 -219 -148 -170 -84 -308 -136 -514 -196 -415 -122 -814 -94 -1081 75
-83 52 -181 150 -207 207 -34 73 -51 209 -37 290 25 140 123 356 205 453 44
52 150 124 181 124 8 0 25 7 37 14 25 17 191 73 252 86 22 4 94 19 160 33 108
22 225 40 340 51 75 7 419 -3 600 -18z m485 -715 c0 -16 -38 -56 -46 -49 -11
12 13 58 31 58 8 0 15 -4 15 -9z m-676 -1188 c3 -10 5 -49 4 -88 -1 -87 8
-194 32 -400 11 -88 22 -179 25 -203 4 -39 2 -44 -28 -62 -28 -18 -51 -20
-202 -20 -216 0 -394 -20 -810 -90 -71 -12 -173 -12 -180 0 -14 22 -19 117
-24 460 -3 195 -5 356 -5 358 1 2 46 7 100 12 55 5 158 14 229 20 72 6 168 15
215 19 47 5 210 9 362 10 256 1 277 0 282 -16z"/>
<path d="M1616 3044 c-3 -9 -6 -57 -6 -108 0 -89 -1 -93 -25 -104 -31 -15 -32
-45 -2 -65 23 -15 23 -19 19 -125 -4 -91 -2 -113 13 -135 23 -35 52 -43 76
-21 25 23 24 54 -1 61 -20 5 -20 11 -14 112 6 115 14 131 65 131 55 0 46 45
-12 64 l-34 11 -3 85 c-2 46 -8 90 -14 97 -15 18 -55 16 -62 -3z"/>
<path d="M990 3005 c-6 -8 -10 -22 -8 -32 4 -22 50 -45 72 -37 23 9 20 50 -6
68 -28 20 -42 20 -58 1z"/>
<path d="M1364 2898 c-16 -12 -35 -30 -42 -40 -14 -20 -38 -24 -44 -8 -1 5
-17 14 -34 19 l-31 9 5 -104 c5 -113 -1 -154 -22 -154 -7 0 -34 -16 -59 -35
-25 -19 -49 -35 -53 -35 -4 0 -4 28 0 63 19 179 19 186 2 212 -14 21 -24 26
-49 23 -28 -3 -34 -9 -55 -64 -22 -56 -23 -64 -10 -90 8 -16 20 -28 27 -26 11
2 12 -11 7 -65 -13 -123 -1 -163 49 -163 27 0 99 55 114 88 12 26 37 28 62 6
19 -17 47 -13 53 8 3 7 12 47 21 89 22 95 72 193 101 197 28 4 34 -21 35 -150
0 -106 7 -131 35 -142 36 -14 44 11 44 132 0 141 -19 224 -56 241 -38 17 -68
13 -100 -11z"/>
<path d="M1940 2863 c-64 -27 -100 -73 -134 -174 -20 -56 -4 -117 44 -171 51
-57 103 -62 198 -18 57 26 73 30 91 21 26 -15 70 -4 93 23 47 55 60 129 33
193 -23 54 -44 73 -81 73 -61 0 -100 -68 -108 -190 -2 -35 -11 -42 -73 -66
-53 -21 -88 -12 -108 26 -19 37 -19 65 0 121 25 71 75 119 127 119 37 0 51 20
31 42 -19 22 -64 22 -113 1z m260 -187 c0 -14 -5 -28 -11 -32 -17 -10 -32 12
-24 35 9 29 35 27 35 -3z"/>
<path d="M2689 2856 c-44 -30 -81 -97 -83 -150 -1 -34 5 -44 49 -83 l50 -44
-33 -29 c-58 -49 -22 -92 46 -56 51 27 84 70 80 107 -3 30 -10 37 -53 59 -64
32 -70 58 -23 107 18 19 46 41 61 49 20 11 27 21 25 37 -5 34 -72 35 -119 3z"/>
<path d="M1153 2855 c-3 -9 -3 -18 0 -21 9 -9 27 6 27 22 0 19 -19 18 -27 -1z"/>
<path d="M2297 2834 c-3 -4 -4 -34 -2 -68 3 -33 7 -94 9 -134 5 -81 22 -112
63 -112 20 0 30 14 64 85 22 47 45 85 50 85 5 0 9 -27 9 -59 0 -50 4 -65 26
-91 36 -42 54 -26 52 43 -1 29 1 80 6 114 10 83 -9 123 -58 123 -33 0 -49 -13
-119 -100 -10 -12 -13 -4 -20 40 -4 29 -12 59 -18 67 -12 13 -51 18 -62 7z"/>
<path d="M1808 1368 c-11 -9 -17 -38 -22 -98 -6 -84 -30 -198 -45 -213 -9 -9
-41 1 -41 13 0 11 -62 107 -95 148 -22 26 -34 32 -65 32 -46 0 -57 -12 -62
-70 -3 -25 -14 -83 -26 -130 -41 -158 -42 -168 -32 -195 8 -22 15 -26 42 -23
29 3 34 8 40 38 32 154 51 231 59 236 11 6 42 -27 66 -71 35 -65 106 -145 128
-145 28 0 51 26 58 65 2 17 17 75 32 130 32 117 44 257 25 280 -15 18 -41 19
-62 3z"/>
<path d="M5949 3490 l-24 -20 24 -20 c13 -11 29 -20 37 -20 25 0 15 -18 -47
-84 -49 -53 -60 -70 -57 -93 2 -21 9 -29 27 -31 17 -3 36 9 74 50 67 71 117
145 117 173 0 55 -104 85 -151 45z"/>
<path d="M4255 3435 c-43 -15 -109 -78 -102 -98 6 -21 56 -20 83 2 15 12 38
21 51 21 23 0 24 -3 18 -32 -4 -18 -14 -42 -21 -53 -18 -26 -18 -50 1 -65 38
-32 105 51 105 129 0 31 -7 48 -27 70 -36 38 -59 43 -108 26z"/>
<path d="M5670 3290 c-86 -13 -514 -30 -858 -35 -172 -3 -318 -7 -323 -11 -5
-3 -7 -20 -4 -37 14 -80 53 -793 49 -896 -5 -121 1 -141 40 -141 39 0 46 19
46 115 0 79 -27 556 -46 813 l-7 92 69 1 c38 1 110 3 159 5 386 13 838 28 878
28 l49 1 3 -335 c2 -263 6 -353 19 -420 26 -134 31 -196 15 -206 -8 -4 -102
-18 -209 -30 -107 -13 -253 -30 -325 -38 -327 -40 -432 -43 -537 -15 -42 11
-78 -1 -78 -27 0 -19 31 -31 110 -42 145 -21 267 -13 805 53 66 8 185 18 265
21 104 5 149 10 160 20 22 21 2 46 -51 64 l-44 16 -21 120 c-32 178 -43 359
-39 629 2 158 0 244 -7 252 -11 14 -35 15 -118 3z"/>
<path d="M4286 3118 c-24 -34 -19 -56 17 -78 41 -25 43 -25 64 6 16 24 16 28
-2 60 -22 40 -56 45 -79 12z"/>
<path d="M5880 3125 c-17 -20 -5 -62 20 -70 24 -8 60 11 60 30 0 19 -36 55
-54 55 -7 0 -19 -7 -26 -15z"/>
<path d="M5304 2807 c-38 -39 -86 -92 -107 -117 l-38 -44 -47 50 c-26 28 -63
69 -83 92 -20 23 -43 42 -52 42 -17 0 -47 -26 -47 -41 0 -5 38 -48 85 -96 46
-49 85 -95 85 -103 0 -9 -34 -48 -75 -87 -41 -40 -75 -80 -75 -90 0 -10 14
-27 31 -37 l32 -19 77 82 c42 44 80 81 83 81 4 0 19 -13 34 -28 16 -16 45 -41
66 -57 32 -24 41 -26 62 -17 35 16 31 46 -7 73 -44 30 -98 81 -98 92 0 12 79
107 152 183 63 64 66 82 22 103 -14 6 -26 11 -28 11 -2 0 -34 -33 -72 -73z"/>
<path d="M6049 2424 c-18 -22 1 -48 39 -52 58 -6 60 -27 8 -82 -52 -55 -56
-75 -23 -125 25 -38 39 -47 63 -38 13 5 15 15 11 46 -5 35 -2 44 24 69 50 51
57 66 49 104 -5 20 -10 37 -12 39 -55 50 -134 70 -159 39z"/>
<path d="M4203 2121 c-71 -52 -112 -123 -82 -142 23 -14 28 -11 82 41 29 28
59 49 67 48 22 -5 24 -46 3 -85 -18 -34 -18 -35 6 -54 36 -29 59 -24 76 17 19
47 19 84 -1 133 -29 74 -85 90 -151 42z"/>
<path d="M6147 2063 c-11 -11 -8 -58 5 -71 26 -26 78 -7 78 28 0 34 -61 65
-83 43z"/>
<path d="M4351 1867 c-18 -18 -13 -65 7 -76 27 -15 61 -2 68 25 8 29 1 40 -35
52 -20 7 -32 7 -40 -1z"/>
<path d="M2684 1805 c-7 -18 10 -42 37 -50 10 -4 19 -11 19 -16 0 -17 -94
-100 -120 -106 -86 -20 -74 -93 16 -93 37 0 46 4 53 23 5 13 29 39 54 58 82
62 98 119 48 170 -33 33 -97 41 -107 14z"/>
<path d="M759 1743 c-68 -33 -106 -81 -89 -112 6 -12 15 -21 21 -21 15 0 52
21 64 36 6 7 22 16 38 20 40 9 35 -13 -18 -83 -47 -63 -49 -81 -17 -131 12
-18 21 -22 41 -17 42 11 63 35 56 67 -5 21 2 41 30 86 49 80 55 123 22 156
-34 34 -76 34 -148 -1z"/>
<path d="M2509 1473 c-43 -51 48 -125 95 -77 25 25 19 52 -16 74 -40 24 -61
25 -79 3z"/>
<path d="M850 1403 c-42 -13 -59 -28 -70 -63 -16 -47 -7 -83 24 -103 59 -39
176 46 176 128 0 29 -85 53 -130 38z"/>
<path d="M2593 840 c-65 -26 -36 -87 37 -77 32 4 42 1 50 -12 12 -24 -23 -74
-70 -98 -38 -20 -48 -49 -30 -82 18 -35 54 -26 114 30 57 53 86 101 86 142 0
68 -113 127 -187 97z"/>
<path d="M864 548 c-16 -4 -48 -25 -70 -45 -78 -73 -91 -123 -31 -123 23 0 38
10 65 41 46 53 60 41 42 -35 -15 -65 -5 -86 40 -86 41 0 51 20 57 119 5 77 3
94 -11 110 -21 23 -52 30 -92 19z"/>
<path d="M2492 438 c-7 -7 -12 -21 -12 -33 0 -28 19 -45 50 -45 48 0 66 42 32
73 -22 20 -53 22 -70 5z"/>
<path d="M970 257 c-46 -23 -31 -77 26 -91 55 -14 88 49 46 87 -22 20 -38 21
-72 4z"/>
<path d="M3720 70 c0 -5 5 -10 10 -10 6 0 10 5 10 10 0 6 -4 10 -10 10 -5 0
-10 -4 -10 -10z"/>
</g>
</svg>
