<?xml version="1.0" standalone="no"?>
<!DOCTYPE svg PUBLIC "-//W3C//DTD SVG 20010904//EN"
 "http://www.w3.org/TR/2001/REC-SVG-20010904/DTD/svg10.dtd">
<svg version="1.0" xmlns="http://www.w3.org/2000/svg"
 width="917.430703pt" height="583.116682pt" viewBox="0 0 917.430703 583.116682"
 preserveAspectRatio="xMidYMid meet">
<metadata>
Created by potrace 1.13, written by Peter Selinger 2001-2015
</metadata>
<g transform="translate(-129.764794,666.789680) scale(0.100000,-0.100000)"
fill="#000000" stroke="none">
<path d="M5537 6647 c-180 -27 -208 -34 -372 -95 -157 -58 -331 -142 -393
-190 -21 -15 -48 -35 -62 -44 -41 -26 -149 -139 -186 -194 -76 -113 -101 -302
-53 -394 4 -8 15 -35 24 -60 18 -49 67 -114 128 -171 22 -20 37 -41 33 -47 -3
-5 -32 -22 -63 -37 -202 -98 -396 -197 -415 -212 -7 -5 -53 -32 -103 -58 -84
-45 -143 -82 -155 -96 -15 -18 -58 -16 -170 7 -192 39 -306 52 -550 65 -193
10 -252 9 -415 -5 -209 -18 -248 -24 -505 -77 -73 -15 -342 -110 -382 -136
-21 -12 -42 -23 -48 -23 -5 0 -10 -4 -10 -8 0 -4 -12 -13 -28 -19 -137 -59
-320 -209 -396 -326 -21 -31 -42 -60 -47 -63 -5 -3 -9 -13 -9 -22 0 -9 -7 -30
-15 -46 -8 -15 -15 -42 -15 -58 0 -16 -4 -27 -9 -24 -13 8 -24 -100 -23 -219
0 -88 4 -110 33 -185 37 -95 85 -189 105 -206 8 -6 14 -16 14 -22 0 -5 7 -12
15 -16 8 -3 15 -11 15 -19 0 -7 23 -33 51 -57 28 -24 57 -49 63 -55 13 -13
107 -69 169 -102 55 -28 178 -77 247 -98 30 -9 66 -21 80 -26 88 -31 376 -77
538 -86 62 -3 115 -10 118 -15 13 -20 -45 -600 -60 -610 -6 -4 -23 -8 -37 -8
-44 0 -251 -56 -330 -89 -61 -25 -201 -117 -229 -150 -3 -3 -26 -23 -52 -44
-27 -21 -48 -44 -48 -52 0 -7 -11 -20 -24 -29 -27 -17 -136 -149 -136 -164 0
-5 -9 -17 -20 -27 -11 -10 -20 -26 -20 -35 0 -9 -11 -27 -25 -40 -14 -13 -25
-27 -25 -32 0 -5 -11 -26 -25 -48 -14 -22 -25 -48 -25 -58 0 -10 -9 -45 -21
-78 -43 -121 -2 -432 66 -500 13 -13 39 -45 57 -71 17 -27 41 -57 53 -69 37
-39 140 -113 176 -128 19 -8 41 -22 48 -30 7 -9 29 -18 50 -22 20 -4 41 -10
46 -14 6 -4 25 -11 43 -15 18 -4 45 -13 60 -21 15 -8 35 -14 45 -14 10 0 27
-5 38 -10 33 -18 179 -17 334 2 83 10 159 22 170 27 11 5 62 21 113 35 82 23
152 54 273 124 45 25 121 83 171 128 20 19 39 34 41 34 16 0 190 191 217 238
8 15 21 31 28 35 6 4 12 14 12 22 0 8 15 45 34 82 62 124 77 275 43 418 -13
54 -23 78 -56 135 -5 8 -19 36 -31 62 -22 46 -135 188 -150 188 -4 0 -18 9
-31 21 -13 11 -34 29 -47 40 -12 10 -29 19 -37 19 -8 0 -15 5 -15 10 0 6 -8
10 -18 10 -10 0 -22 3 -26 7 -3 4 -16 8 -28 10 -12 2 -27 8 -33 13 -13 10
-157 36 -250 44 -81 7 -218 31 -234 41 -10 6 -12 36 -6 134 4 69 9 171 10 226
3 108 10 181 21 233 6 30 9 32 53 32 121 0 419 43 556 80 139 38 172 48 276
88 123 47 199 84 359 171 413 227 546 334 624 504 51 109 68 200 65 334 -1 54
0 113 3 132 5 29 0 39 -27 65 -18 17 -46 56 -63 86 -34 61 -67 83 -147 100
-27 6 -72 21 -100 34 -135 64 -207 96 -232 102 -16 4 -32 10 -38 14 -5 4 -43
17 -83 29 -53 17 -72 27 -70 38 3 17 8 19 285 171 119 65 254 129 323 154 30
11 71 28 91 39 39 20 79 25 95 10 12 -11 177 -66 273 -91 184 -47 314 -61 571
-60 312 0 461 21 713 102 l99 32 75 -77 c60 -62 80 -77 104 -77 25 0 49 -20
152 -127 147 -152 313 -319 353 -353 16 -14 63 -55 104 -91 41 -36 99 -82 128
-103 28 -21 52 -41 52 -45 0 -4 -78 -33 -172 -65 -187 -62 -193 -64 -378 -154
-100 -49 -138 -74 -193 -125 -134 -129 -172 -278 -111 -433 25 -63 64 -130
104 -175 8 -10 20 -24 27 -31 31 -36 105 -98 163 -137 36 -24 67 -47 70 -50 3
-3 10 -7 16 -8 6 -1 45 -18 86 -38 41 -19 80 -35 87 -35 6 0 22 -7 34 -14 12
-8 45 -20 72 -26 28 -6 59 -14 70 -19 34 -15 224 -60 345 -81 63 -11 126 -22
140 -25 81 -18 407 -34 645 -32 l220 2 6 -100 c6 -91 18 -190 35 -286 5 -32 3
-39 -21 -55 -69 -49 -86 -66 -75 -79 12 -14 -2 -28 -37 -39 -12 -4 -49 -29
-84 -56 -34 -28 -65 -50 -68 -50 -11 0 -206 -193 -233 -230 -37 -51 -118 -200
-118 -216 0 -8 -4 -14 -8 -14 -8 0 -30 -85 -53 -213 -17 -92 6 -218 60 -323
46 -89 127 -194 150 -194 6 0 11 -5 11 -11 0 -21 56 -68 165 -137 19 -11 64
-34 75 -37 3 0 19 -8 35 -17 17 -9 71 -26 120 -39 121 -32 337 -33 500 -4 61
11 112 23 113 27 2 5 15 8 29 8 27 0 95 16 128 31 11 5 54 20 95 34 77 26 257
121 383 203 40 25 113 88 164 139 72 72 100 109 127 167 48 101 59 145 62 249
3 99 -2 118 -55 237 -41 89 -140 238 -176 262 -5 4 -10 11 -10 16 0 5 -16 22
-35 38 -19 16 -46 41 -60 56 -13 16 -28 28 -33 28 -4 0 -30 18 -58 40 -28 22
-56 40 -63 40 -6 0 -23 8 -36 17 -14 10 -32 19 -40 20 -8 1 -16 7 -18 12 -2 6
-8 11 -14 11 -5 0 -24 6 -41 14 -102 44 -262 86 -331 86 -23 0 -46 3 -50 7
-16 17 -223 3 -342 -22 -20 -5 -34 -2 -41 7 -20 25 -53 269 -45 333 l7 60 75
6 c41 4 93 11 115 17 22 6 78 15 125 22 325 43 828 200 1109 345 131 68 222
170 237 266 4 24 10 51 15 60 7 14 -21 171 -40 214 -31 75 -81 167 -102 192
-9 10 -20 28 -23 41 -4 12 -11 22 -16 22 -5 0 -32 25 -61 55 -28 30 -58 55
-65 55 -7 0 -17 6 -21 14 -7 12 -84 58 -195 116 -29 15 -48 32 -48 42 0 58
-216 129 -480 158 -57 6 -107 13 -110 15 -9 5 -201 17 -330 20 -335 9 -745
-37 -1055 -118 -33 -8 -91 -23 -130 -32 -38 -8 -94 -23 -124 -32 l-54 -17 -33
38 c-19 22 -40 36 -51 35 -26 -4 -73 10 -73 21 0 6 -5 10 -10 10 -21 0 -262
211 -393 344 -76 78 -172 176 -215 219 -42 44 -114 111 -160 149 -93 80 -93
77 -4 134 194 125 282 282 254 454 -12 75 -40 160 -53 160 -5 0 -9 6 -9 13 0
36 -57 127 -120 192 -88 89 -238 178 -333 196 -37 7 -82 24 -112 43 -86 55
-163 86 -263 106 -54 11 -113 24 -132 30 -49 15 -229 8 -373 -13z m433 -61
c64 -14 78 -18 133 -38 51 -19 30 -34 -75 -52 -146 -24 -208 -38 -214 -48 -3
-4 -15 -8 -27 -8 -38 0 -218 -62 -214 -74 5 -15 101 -8 192 13 236 54 240 55
393 55 l154 1 49 -55 c26 -30 49 -60 49 -67 0 -16 60 -64 71 -57 13 8 11 40
-6 81 -8 20 -13 38 -10 41 16 17 151 -75 240 -163 60 -60 76 -84 104 -152 49
-123 57 -236 22 -326 -14 -36 -102 -129 -169 -179 -93 -69 -338 -178 -401
-178 -9 0 -21 -4 -27 -9 -10 -9 -149 -37 -229 -45 -284 -31 -463 -28 -720 11
-92 14 -283 61 -330 82 -11 5 -59 25 -107 46 -86 37 -196 119 -235 175 -9 14
-20 27 -24 30 -11 8 -48 99 -54 134 -11 57 12 180 46 243 40 76 163 199 269
271 149 101 381 203 565 247 177 42 418 52 555 21z m-2525 -1571 c153 -19 292
-42 305 -50 13 -8 13 -25 0 -25 -19 0 -50 -40 -50 -65 0 -50 48 -50 114 0 67
51 90 55 175 29 200 -60 340 -119 524 -222 68 -38 147 -110 162 -146 20 -48
27 -173 15 -256 -20 -140 -68 -233 -169 -327 -78 -74 -91 -69 -97 32 -6 112 2
135 59 162 50 24 69 49 64 85 -4 26 -40 36 -62 18 -24 -20 -28 10 -16 102 10
75 10 84 -7 101 -24 23 -69 8 -76 -25 -6 -30 -28 -156 -32 -188 -1 -13 -6 -26
-11 -27 -62 -22 -80 -60 -41 -87 22 -15 23 -21 20 -119 -3 -75 1 -112 12 -138
20 -48 16 -52 -119 -131 -292 -172 -520 -272 -754 -332 -279 -72 -628 -102
-892 -76 -138 14 -346 49 -388 66 -18 8 -45 14 -60 14 -24 0 -86 20 -166 54
-16 7 -55 23 -85 36 -72 30 -131 60 -151 76 -8 8 -19 14 -22 14 -28 0 -217
208 -217 238 0 7 -4 12 -10 12 -5 0 -10 7 -10 15 0 8 -4 15 -10 15 -5 0 -10
13 -10 28 0 15 -4 32 -9 38 -28 28 -33 298 -7 349 6 11 9 25 8 32 -1 6 2 14 8
18 5 3 10 14 10 23 0 10 16 41 35 69 19 29 35 57 35 62 0 14 144 159 190 192
131 95 357 204 510 248 169 48 308 72 595 101 118 12 491 3 630 -15z m5715
-379 c173 -7 330 -24 351 -37 8 -5 10 -9 4 -9 -5 -1 -99 -3 -208 -5 -109 -2
-221 -8 -250 -14 -29 -5 -94 -15 -144 -22 -66 -8 -93 -16 -93 -25 0 -17 39
-18 355 -15 202 2 266 -2 470 -28 80 -10 201 -48 293 -91 35 -17 65 -30 67
-30 16 0 175 -125 200 -157 11 -14 36 -44 56 -67 95 -110 146 -313 104 -413
-56 -133 -264 -258 -605 -362 -58 -18 -132 -41 -165 -51 -202 -62 -516 -121
-830 -156 -160 -17 -530 -20 -730 -4 -161 12 -424 52 -502 75 -26 8 -57 15
-69 15 -24 0 -150 36 -176 51 -10 5 -27 9 -37 9 -11 0 -23 5 -26 10 -3 6 -15
10 -25 10 -10 0 -31 6 -47 14 -15 8 -46 22 -68 32 -22 9 -49 22 -60 27 -11 6
-37 19 -57 29 -21 10 -38 23 -38 28 0 6 -4 10 -10 10 -5 0 -19 8 -31 18 -40
33 -174 173 -177 185 -2 7 -15 36 -29 66 -23 48 -25 62 -20 133 5 65 12 86 36
121 43 63 127 138 207 186 184 109 574 245 964 336 63 15 129 31 145 36 198
57 732 113 980 102 33 -2 107 -5 165 -7z m115 -2042 c21 -2 62 -10 90 -18 27
-9 81 -25 120 -36 38 -12 80 -27 92 -35 12 -8 27 -15 34 -15 14 0 133 -71 137
-82 2 -4 9 -8 15 -8 17 0 237 -230 237 -248 0 -10 9 -23 20 -30 11 -7 20 -18
20 -25 0 -7 13 -33 28 -58 16 -24 32 -62 35 -84 4 -22 11 -62 17 -90 39 -183
-75 -369 -343 -560 -76 -55 -252 -150 -342 -185 -53 -21 -85 -31 -142 -45 -35
-8 -90 -22 -123 -30 -33 -8 -70 -15 -83 -15 -12 1 -58 -3 -102 -7 -105 -11
-267 -7 -310 7 -19 6 -39 9 -44 6 -5 -3 -14 1 -20 8 -7 8 -30 17 -52 21 -22 4
-43 13 -46 21 -3 8 -11 14 -17 14 -23 0 -111 64 -166 121 -79 81 -108 118
-133 169 -12 25 -25 46 -29 48 -5 2 -8 16 -8 32 0 16 -5 30 -11 32 -8 3 -12
44 -11 128 0 115 3 133 35 232 46 141 108 240 222 353 134 133 222 192 349
235 61 21 79 22 189 17 67 -4 145 -13 172 -22 28 -9 64 -20 80 -25 17 -5 49
-12 72 -16 35 -5 44 -3 49 11 10 25 -23 47 -104 68 -37 10 -80 22 -97 27 -16
5 -46 12 -65 15 -19 2 -62 9 -95 14 -33 4 -66 6 -72 4 -17 -7 -16 22 1 36 32
27 206 33 401 15z m-6530 -112 c9 -22 14 -23 64 -18 154 18 200 19 238 3 25
-10 55 -13 86 -10 89 10 244 -53 329 -133 90 -86 178 -234 198 -332 7 -31 14
-68 17 -82 10 -40 10 -160 1 -166 -4 -3 -8 -18 -8 -33 0 -35 -49 -142 -90
-196 -16 -22 -34 -50 -39 -62 -21 -46 -254 -264 -341 -317 -163 -101 -237
-132 -405 -168 -133 -29 -438 -32 -457 -4 -3 5 -16 11 -28 13 -11 2 -39 12
-60 22 -22 11 -63 25 -91 32 -28 7 -55 21 -60 31 -5 10 -16 15 -24 12 -9 -4
-15 0 -15 8 0 15 -44 58 -58 58 -17 0 -94 74 -119 113 -71 113 -92 170 -102
283 -5 60 -8 125 -6 144 4 47 25 122 37 137 5 7 7 16 4 22 -3 5 -3 11 2 13 4
1 18 23 30 48 76 154 292 398 430 486 107 69 288 125 392 121 58 -2 66 -5 75
-25z"/>
<path d="M5673 6198 c-10 -13 -26 -83 -38 -165 -8 -51 -19 -60 -50 -43 -32 17
-68 2 -127 -55 -109 -107 -135 -250 -58 -327 45 -44 113 -33 170 27 31 33 37
32 62 -10 25 -43 64 -65 116 -65 43 0 76 26 70 57 -2 14 -14 19 -50 21 -26 2
-52 10 -59 18 -22 27 -17 152 7 199 11 22 29 74 38 115 15 62 16 85 7 134 -6
33 -9 62 -6 64 3 3 -2 14 -12 24 -19 21 -56 24 -70 6z m-82 -346 c17 -20 -4
-61 -66 -128 -46 -49 -56 -55 -69 -44 -36 29 -2 135 62 191 34 30 36 31 48 13
8 -11 18 -25 25 -32z"/>
<path d="M6161 6142 c-12 -11 -23 -44 -31 -92 -18 -107 -13 -101 -84 -94 -59
6 -62 5 -103 -30 -105 -91 -135 -288 -53 -346 53 -38 91 -21 150 66 24 35 47
64 51 64 5 0 17 -20 28 -45 20 -46 69 -85 107 -85 24 0 68 55 60 76 -3 8 -19
14 -36 14 -27 0 -34 6 -50 43 -26 57 -25 115 6 242 30 124 33 154 23 176 -12
24 -46 30 -68 11z m-107 -294 c-3 -28 -94 -168 -110 -168 -16 0 -19 55 -5 93
17 43 72 98 95 95 13 -2 20 -10 20 -20z"/>
<path d="M4978 6066 c-111 -34 -208 -200 -193 -330 11 -102 39 -136 111 -136
34 0 45 7 96 62 32 35 58 66 58 70 0 5 6 8 13 8 7 0 18 -19 24 -43 26 -97 124
-137 192 -78 30 27 53 85 39 99 -17 17 -23 15 -57 -14 -37 -31 -71 -29 -88 6
-16 31 -17 103 -2 150 34 109 30 140 -19 140 -18 0 -37 11 -57 34 -35 40 -65
48 -117 32z m86 -101 c9 -13 16 -30 16 -38 0 -21 -141 -197 -173 -216 -24 -14
-29 -14 -38 -1 -16 24 -2 106 26 158 62 112 132 153 169 97z"/>
<path d="M2237 4522 c-36 -40 -5 -97 49 -90 23 2 30 9 35 38 13 60 -45 95 -84
52z"/>
<path d="M2831 4514 c-17 -12 -21 -26 -21 -67 0 -62 -8 -76 -52 -96 -46 -22
-50 -57 -10 -91 l30 -25 3 -160 c1 -88 7 -166 12 -172 5 -7 20 -13 33 -13 35
0 42 28 50 182 8 166 8 171 17 185 4 6 29 14 56 18 48 6 72 23 84 56 9 27 -14
39 -76 39 l-59 0 7 63 c5 47 4 66 -7 73 -25 20 -46 22 -67 8z"/>
<path d="M4124 4389 c-63 -18 -111 -110 -99 -189 9 -56 17 -72 66 -125 45 -49
42 -55 -36 -77 -42 -11 -50 -18 -53 -40 -3 -24 0 -27 41 -33 70 -11 143 11
195 58 15 14 22 32 22 59 0 21 -4 38 -8 38 -5 0 -37 27 -72 60 -58 55 -62 62
-56 92 7 40 35 64 87 78 29 8 40 17 45 37 12 47 -49 66 -132 42z"/>
<path d="M2196 4329 c-28 -22 -34 -55 -12 -73 12 -9 13 -29 5 -111 -16 -166
-14 -193 16 -221 38 -35 93 -33 134 5 32 30 55 32 65 5 7 -18 70 -18 85 0 7 8
14 31 17 53 12 93 43 173 65 173 5 0 8 -51 7 -113 -1 -62 2 -118 6 -125 8 -14
54 -16 74 -3 27 17 34 120 19 305 -1 10 -13 31 -28 47 -35 37 -86 39 -125 6
-25 -22 -30 -23 -53 -11 -32 17 -63 18 -79 2 -14 -14 -16 -60 -3 -73 13 -13
17 -128 5 -131 -5 -1 -21 -5 -36 -8 -15 -3 -34 -13 -42 -22 -31 -30 -36 -7
-30 140 6 142 6 143 -17 160 -30 21 -41 20 -73 -5z"/>
<path d="M3165 4318 c-33 -11 -115 -85 -115 -104 0 -6 -7 -17 -15 -24 -20 -17
-20 -125 0 -173 8 -19 31 -49 52 -66 33 -28 45 -31 102 -31 53 0 74 5 119 31
52 29 55 30 87 15 18 -9 53 -19 77 -22 50 -6 96 17 124 63 10 15 24 36 33 46
14 16 16 15 32 -20 10 -21 18 -46 19 -56 0 -24 48 -41 76 -28 13 5 33 32 46
58 32 63 50 66 67 9 7 -24 21 -52 32 -62 17 -16 20 -16 45 1 21 13 25 22 20
43 -3 15 -11 72 -16 127 -13 141 -17 154 -47 161 -37 10 -68 -9 -93 -58 -12
-23 -31 -51 -41 -61 -21 -20 -23 -18 -34 45 -8 52 -30 71 -72 65 -24 -4 -47 0
-73 14 -60 31 -110 19 -167 -40 -24 -25 -47 -58 -50 -74 -3 -15 -10 -30 -14
-33 -5 -3 -9 -27 -9 -54 0 -47 -1 -48 -40 -64 -22 -9 -61 -16 -85 -16 -91 0
-134 87 -84 170 27 44 45 57 89 65 62 11 70 15 70 40 0 42 -65 57 -135 33z
m384 -126 c23 -43 -18 -135 -62 -140 -15 -2 -27 0 -28 5 0 4 -2 21 -4 36 -10
75 65 153 94 99z"/>
<path d="M7372 4238 c-27 -27 0 -88 40 -88 39 0 67 81 32 94 -25 10 -59 7 -72
-6z"/>
<path d="M8017 4212 c-13 -14 -17 -38 -17 -91 0 -67 -2 -72 -25 -83 -35 -16
-33 -57 3 -90 24 -21 29 -34 31 -79 1 -29 8 -63 16 -76 8 -12 15 -28 15 -36 0
-7 13 -28 28 -45 41 -46 91 -45 127 3 38 48 28 77 -23 69 -35 -5 -38 -4 -49
28 -10 29 -17 89 -14 124 1 6 21 19 46 29 49 18 81 55 71 81 -6 16 -38 16
-103 -2 -22 -6 -23 -4 -23 68 0 79 -16 118 -49 118 -10 0 -25 -8 -34 -18z"/>
<path d="M9738 4133 c-14 -16 -25 -60 -34 -133 -1 -13 -14 -33 -28 -43 -31
-22 -33 -51 -7 -69 10 -7 22 -32 26 -57 16 -97 53 -144 91 -116 19 12 19 19
10 96 l-9 82 36 32 c44 39 47 66 11 86 -24 13 -26 17 -20 63 4 39 2 52 -12 62
-24 18 -46 17 -64 -3z"/>
<path d="M7305 4072 c-49 -10 -61 -61 -25 -100 18 -19 21 -37 23 -116 3 -113
16 -136 80 -136 32 0 46 7 76 38 20 20 44 52 53 70 22 42 36 41 43 -5 12 -73
15 -83 35 -93 38 -20 60 -2 100 82 40 82 57 108 70 108 4 0 15 -19 25 -42 9
-24 20 -45 25 -48 4 -3 17 -24 29 -48 28 -55 82 -83 111 -57 18 17 17 48 -4
74 -22 28 -106 194 -106 209 0 18 -52 52 -80 52 -29 0 -61 -29 -89 -81 -22
-40 -45 -44 -49 -9 -2 14 -13 35 -25 48 -45 48 -112 0 -82 -58 8 -15 13 -42
13 -61 -1 -19 -3 -28 -5 -21 -7 20 -42 14 -77 -13 -18 -14 -36 -22 -39 -18 -4
3 -7 38 -7 77 -1 39 -6 81 -13 93 -18 32 -59 60 -82 55z"/>
<path d="M9440 4048 c-36 -39 -22 -114 34 -179 19 -23 32 -47 29 -55 -8 -22
-62 -17 -81 7 -21 25 -50 17 -58 -18 -22 -87 150 -127 226 -52 43 44 42 94 -4
141 -47 48 -53 74 -26 103 28 30 14 60 -31 69 -51 10 -67 7 -89 -16z"/>
<path d="M8519 4041 c-57 -8 -91 -30 -129 -82 -81 -112 -71 -227 24 -276 38
-20 129 -13 177 13 23 12 56 19 99 19 85 0 115 20 152 103 25 55 30 61 43 48
8 -8 15 -21 15 -29 0 -8 7 -20 15 -27 8 -7 17 -27 21 -46 5 -25 13 -36 30 -40
38 -10 51 1 95 82 77 139 112 159 121 67 3 -26 13 -74 23 -106 13 -45 22 -60
43 -68 20 -8 29 -6 43 8 16 17 17 23 4 78 -8 33 -15 82 -16 109 -3 63 -32 124
-67 137 -58 22 -140 -20 -168 -86 -7 -18 -20 -38 -30 -45 -14 -13 -19 -11 -38
11 -11 15 -25 33 -31 42 -17 26 -49 29 -73 7 -26 -25 -24 -25 -68 5 -41 28
-120 34 -164 12 -38 -19 -72 -93 -66 -144 5 -36 2 -43 -19 -57 -31 -20 -74
-20 -103 0 -52 36 -9 129 79 175 47 24 64 51 49 79 -6 11 -12 19 -13 19 -1 -1
-23 -5 -48 -8z m235 -157 c8 -21 7 -26 -3 -43 -8 -12 -12 -12 -25 1 -9 9 -21
18 -28 20 -10 4 -10 8 1 21 17 21 47 22 55 1z"/>
<path d="M8760 2127 c-104 -27 -140 -48 -140 -83 0 -48 44 -69 85 -40 81 57
281 60 260 5 -8 -21 -77 -56 -133 -68 -24 -5 -45 -11 -47 -13 -13 -15 -12 -48
4 -74 17 -28 25 -32 82 -37 134 -13 223 -45 233 -84 18 -70 -83 -168 -199
-193 -81 -17 -157 -15 -197 4 -30 16 -34 16 -58 -2 -34 -26 -38 -71 -8 -99 34
-32 83 -40 188 -33 175 13 313 88 369 202 32 65 37 92 25 143 -8 36 -68 101
-109 120 -16 7 -38 19 -48 27 -17 13 -17 14 0 33 29 32 43 73 36 107 -7 36
-31 68 -51 68 -7 0 -24 7 -38 17 -40 26 -153 26 -254 0z"/>
<path d="M2608 2171 c-126 -8 -144 -20 -189 -126 -7 -16 -14 -41 -15 -54 -2
-14 -8 -37 -15 -52 -13 -33 -7 -44 33 -69 24 -14 37 -16 62 -9 49 15 165 12
192 -6 13 -8 30 -15 39 -15 8 0 15 -4 15 -10 0 -5 5 -10 11 -10 15 0 59 -42
59 -57 0 -7 5 -13 10 -13 11 0 14 -63 3 -74 -4 -3 -8 -13 -9 -20 -3 -19 -36
-56 -51 -56 -6 0 -16 -6 -20 -14 -14 -23 -85 -53 -143 -60 -54 -7 -140 8 -186
32 -69 35 -71 36 -104 12 -26 -19 -30 -27 -25 -49 9 -37 49 -71 83 -71 15 0
34 -6 41 -12 8 -9 51 -13 139 -13 126 0 128 0 202 37 88 43 153 99 174 150 9
20 19 39 24 42 14 8 13 112 -2 148 -17 40 -87 101 -149 128 -23 10 -46 22 -50
26 -10 10 -25 13 -122 22 l-80 7 3 35 c1 19 7 39 12 44 4 4 66 9 137 11 132 2
160 9 197 48 14 15 17 24 9 36 -11 18 -112 22 -285 12z"/>
</g>
</svg>
