<?xml version="1.0" standalone="no"?>
<!DOCTYPE svg PUBLIC "-//W3C//DTD SVG 20010904//EN"
 "http://www.w3.org/TR/2001/REC-SVG-20010904/DTD/svg10.dtd">
<svg version="1.0" xmlns="http://www.w3.org/2000/svg"
 width="817.120483pt" height="554.785292pt" viewBox="0 0 817.120483 554.785292"
 preserveAspectRatio="xMidYMid meet">
<metadata>
Created by potrace 1.13, written by Peter Selinger 2001-2015
</metadata>
<g transform="translate(-10.731805,586.789025) scale(0.100000,-0.100000)"
fill="#000000" stroke="none">
<path d="M1680 5858 c-377 -27 -408 -35 -494 -121 -54 -54 -81 -103 -117 -212
-25 -77 -28 -277 -4 -344 23 -66 71 -144 115 -189 22 -22 40 -49 40 -59 0 -25
-108 -186 -172 -257 -20 -22 9 -24 -298 20 -85 12 -119 13 -180 3 -207 -32
-272 -63 -348 -164 -20 -27 -91 -186 -102 -227 -7 -26 -12 -80 -13 -120 0 -90
28 -152 98 -217 104 -96 359 -171 587 -171 67 0 76 -13 67 -96 -8 -76 -1 -166
13 -175 5 -3 -41 -9 -103 -12 -168 -10 -159 3 -159 -225 0 -162 3 -195 20
-242 23 -62 45 -89 60 -74 7 7 6 26 -2 60 -6 27 -13 129 -15 226 -4 176 -4
177 19 189 34 18 448 13 466 -5 12 -11 12 -52 5 -222 l-8 -209 -60 -6 c-62 -7
-148 -20 -250 -39 -33 -6 -87 -15 -120 -21 -71 -12 -88 -24 -61 -45 25 -18 57
-18 148 2 204 43 339 60 366 45 28 -15 104 33 100 64 -2 16 -9 19 -32 17 l-29
-4 6 252 6 251 -72 -8 c-77 -8 -97 -8 -192 -5 l-60 2 3 78 c2 42 7 101 10 131
l7 54 160 2 c168 2 229 12 380 60 44 14 113 35 154 46 40 11 91 29 112 39 66
34 69 44 66 237 l-3 172 -43 84 c-55 109 -124 187 -193 218 -50 23 -64 24
-245 24 -179 1 -223 6 -197 23 5 4 21 23 34 42 14 19 32 44 42 54 10 11 32 44
50 73 31 50 35 54 63 49 162 -31 226 -30 549 9 199 24 199 24 271 -66 197
-250 190 -239 140 -239 -20 0 -44 5 -54 12 -43 27 -47 12 -60 -219 -6 -120
-14 -244 -16 -275 -7 -86 6 -105 73 -114 58 -7 212 6 407 35 117 18 121 18
141 0 23 -21 49 -25 60 -7 13 21 33 281 34 434 0 178 -1 180 -83 170 -28 -4
-59 -7 -67 -7 -13 0 -182 -14 -281 -23 -34 -4 -40 0 -99 71 -102 121 -191 245
-186 259 2 6 18 15 34 18 32 8 102 75 126 123 58 115 78 327 43 445 -21 68
-102 230 -126 252 -29 27 -151 64 -247 75 -98 12 -113 12 -284 -1z m345 -39
c67 -17 98 -36 147 -86 122 -125 158 -316 100 -533 -22 -87 -94 -190 -132
-190 -9 0 -20 -4 -26 -9 -10 -11 -78 -22 -279 -45 -219 -26 -240 -27 -348 -28
-97 0 -110 2 -170 31 -93 45 -148 112 -198 241 -18 45 -18 285 -1 302 7 7 12
20 12 31 0 36 53 126 106 180 65 66 82 71 304 92 91 9 170 18 175 20 23 8 273
4 310 -6z m-1170 -1187 c101 -16 110 -19 115 -41 8 -35 23 -36 59 -5 l32 27
78 -18 c93 -21 117 -18 113 14 l-2 24 108 -6 c146 -8 202 -28 257 -89 99 -110
125 -192 125 -388 0 -173 6 -166 -180 -220 -41 -12 -84 -25 -95 -30 -11 -5
-58 -19 -105 -32 -80 -22 -101 -23 -340 -22 -440 3 -651 48 -787 167 -47 41
-64 88 -65 178 0 86 14 136 73 256 47 95 98 147 161 163 24 6 61 17 83 24 57
19 240 18 370 -2z m1933 -221 c2 -142 -7 -274 -20 -287 -13 -12 -390 -54 -462
-52 l-89 3 -11 40 c-6 22 -10 51 -10 65 1 14 5 93 8 175 4 83 9 159 11 171 4
20 15 21 227 33 123 8 239 17 258 21 19 5 46 8 60 7 l25 -2 3 -174z"/>
<path d="M2043 5638 c-6 -7 -14 -44 -18 -81 -7 -64 -9 -68 -29 -63 -11 3 -30
9 -42 12 -26 7 -84 -39 -84 -66 0 -10 -4 -22 -10 -25 -5 -3 -10 -39 -10 -78 0
-73 12 -104 50 -134 22 -18 97 -16 104 2 8 21 21 19 50 -10 17 -17 36 -25 59
-25 39 0 73 30 63 56 -6 15 -8 15 -32 -1 -57 -37 -83 41 -60 178 23 134 17
239 -15 245 -9 1 -21 -3 -26 -10z m-55 -208 c2 -14 8 -29 13 -34 30 -31 -16
-156 -57 -156 -28 0 -34 17 -34 96 0 79 21 127 53 122 15 -2 23 -11 25 -28z"/>
<path d="M1677 5633 c-4 -3 -7 -39 -7 -78 l0 -73 -44 5 c-41 5 -45 3 -72 -32
-21 -28 -29 -50 -32 -93 -7 -110 57 -167 142 -127 36 17 37 17 57 -4 21 -23
45 -27 69 -11 13 8 10 14 -15 34 l-30 24 0 164 c0 125 -3 169 -14 181 -14 17
-42 22 -54 10z m-24 -213 c25 -24 28 -34 22 -62 -19 -85 -59 -112 -91 -63 -20
30 -15 92 10 130 21 31 25 31 59 -5z"/>
<path d="M1350 5511 c0 -6 -13 -11 -29 -11 -53 0 -79 -17 -106 -69 -31 -61
-33 -123 -5 -168 32 -52 93 -54 120 -2 11 20 12 19 41 -6 39 -32 97 -34 124
-5 14 16 16 23 7 32 -9 9 -15 9 -24 0 -18 -18 -43 -15 -64 9 -16 18 -19 37
-19 123 0 97 -1 101 -22 104 -13 2 -23 -1 -23 -7z m-20 -95 c0 -25 -4 -48 -10
-51 -5 -3 -10 -16 -10 -28 0 -12 -9 -33 -20 -47 -27 -36 -45 -14 -42 53 3 71
26 117 57 117 23 0 25 -4 25 -44z"/>
<path d="M375 4499 c-11 -17 5 -79 19 -79 28 0 37 74 10 84 -21 8 -22 8 -29
-5z"/>
<path d="M727 4422 l5 -49 -37 -6 c-21 -3 -57 -4 -80 0 -38 5 -44 3 -50 -16
-5 -16 -15 -21 -39 -21 l-33 0 2 -87 c3 -111 1 -105 27 -101 16 2 24 15 35 53
19 68 34 105 43 105 4 0 10 -31 14 -70 8 -88 23 -122 50 -118 13 2 19 9 17 18
-13 49 -27 176 -21 183 4 5 23 7 41 5 31 -3 34 -7 41 -43 4 -22 7 -74 7 -115
1 -76 10 -100 39 -100 12 0 14 23 11 132 l-4 131 33 9 c43 11 36 32 -11 36
-38 3 -42 9 -49 72 -2 17 -10 26 -25 28 -21 3 -22 1 -16 -46z"/>
<path d="M1570 4388 c0 -50 -20 -97 -43 -100 -31 -4 -34 -35 -4 -49 22 -10 25
-18 29 -80 4 -73 9 -85 33 -76 11 5 15 23 15 77 0 62 3 73 25 92 30 26 32 44
5 53 -16 5 -19 14 -17 53 2 42 0 47 -20 50 -18 3 -23 -1 -23 -20z"/>
<path d="M385 4349 c-4 -5 -9 -54 -12 -107 -5 -81 -3 -100 10 -111 33 -27 41
-8 44 104 3 81 1 110 -9 116 -17 12 -26 11 -33 -2z"/>
<path d="M914 4331 c-29 -18 -48 -52 -58 -108 -6 -30 35 -96 66 -107 20 -7 35
-6 53 4 22 12 29 12 53 -2 25 -15 58 -22 90 -19 7 1 25 13 39 27 22 22 30 25
45 15 10 -6 24 -11 31 -11 16 0 50 36 62 65 8 18 9 16 12 -10 7 -59 13 -75 32
-75 10 0 26 -9 36 -20 26 -29 58 -25 94 12 42 43 42 88 0 136 l-32 36 28 22
c25 20 27 25 15 39 -14 17 -53 14 -77 -7 -21 -17 -16 -82 8 -104 50 -45 44
-94 -11 -94 -33 0 -45 23 -34 64 12 49 -15 126 -45 126 -12 0 -51 -36 -51 -47
0 -6 -7 -17 -16 -24 -15 -12 -16 -11 -10 9 4 12 4 31 1 42 -7 21 -39 27 -50 9
-5 -7 -15 -5 -31 5 -34 23 -88 20 -119 -7 -15 -12 -35 -47 -45 -77 -10 -30
-26 -59 -34 -65 -22 -14 -50 6 -54 38 -4 31 23 87 42 87 7 0 20 7 27 16 11 14
10 18 -6 30 -24 18 -24 18 -61 -5z m224 -53 c31 -31 -9 -132 -50 -126 -45 7
-49 59 -7 111 22 29 38 34 57 15z"/>
<path d="M2397 4463 c-13 -13 -7 -40 14 -59 23 -20 69 -88 69 -102 0 -13 -161
-171 -182 -177 -25 -9 -23 -35 3 -35 34 0 89 38 156 108 41 43 66 63 77 59 8
-3 27 -25 41 -47 30 -47 58 -51 63 -8 2 19 -7 38 -32 66 -20 22 -36 42 -36 45
0 3 20 27 45 54 50 54 54 69 23 79 -17 5 -30 -3 -65 -41 -50 -53 -53 -52 -104
22 -27 39 -55 53 -72 36z"/>
<path d="M6565 5698 c-11 -6 -24 -17 -30 -24 -5 -6 -48 -15 -95 -18 -162 -13
-340 -72 -415 -137 -46 -41 -65 -83 -65 -147 0 -116 50 -224 148 -319 l64 -63
-23 -37 c-24 -39 -134 -189 -155 -210 -7 -7 -27 -36 -45 -63 -18 -28 -42 -53
-53 -55 -12 -3 -57 -12 -100 -21 -206 -41 -283 -105 -322 -269 -65 -278 65
-474 315 -475 l54 0 -7 -87 c-4 -66 -10 -91 -22 -98 -147 -90 -229 -165 -273
-253 -26 -52 -31 -73 -31 -134 0 -97 13 -137 60 -191 71 -80 175 -110 306 -88
189 32 344 188 344 346 0 67 -36 152 -89 208 -52 56 -93 79 -171 97 -30 7 -61
14 -69 16 -10 3 -12 17 -7 57 3 28 6 71 6 93 l0 41 63 12 c34 7 143 32 242 55
99 24 214 51 255 61 110 26 170 52 213 93 32 31 37 42 37 82 0 43 -18 112 -33
126 -4 4 -7 14 -7 23 0 9 -6 27 -13 41 -94 178 -147 241 -229 272 -67 25 -171
24 -249 -3 -49 -17 -75 -20 -122 -15 -34 3 -65 10 -70 15 -6 6 36 71 108 168
65 87 121 162 125 166 4 4 34 -4 66 -18 138 -61 365 -90 487 -61 137 32 226
97 279 205 20 40 22 61 22 166 -1 106 -4 127 -26 175 -72 160 -368 328 -473
268z m115 -21 c19 -7 44 -18 55 -25 19 -13 19 -13 -5 -8 -14 3 -55 8 -92 12
-64 6 -77 12 -61 27 10 11 65 8 103 -6z m5 -62 c48 -9 111 -26 141 -40 65 -30
144 -103 144 -134 0 -14 7 -25 19 -28 26 -7 34 -47 34 -150 -1 -102 -21 -164
-74 -225 -39 -46 -70 -60 -84 -38 -3 6 -15 10 -25 10 -23 0 -50 36 -50 66 0
11 8 36 18 55 13 25 17 58 17 129 0 116 -8 150 -36 150 -24 0 -44 -42 -54
-117 -5 -39 -13 -56 -31 -68 -36 -24 -56 -59 -63 -117 -6 -51 -7 -53 -36 -53
-25 0 -33 7 -49 38 -15 31 -16 43 -7 65 21 51 29 135 19 202 -12 74 -23 100
-43 100 -21 0 -27 -15 -34 -93 -5 -64 -8 -72 -28 -75 -12 -2 -36 -19 -53 -38
-26 -30 -30 -43 -30 -90 0 -47 -3 -55 -17 -52 -29 5 -44 48 -39 111 6 87 -27
110 -95 64 -39 -26 -79 -97 -79 -142 0 -67 61 -98 108 -55 22 21 42 26 42 11
0 -17 35 -24 121 -26 85 -1 87 -2 114 -33 29 -34 73 -43 94 -19 19 23 114 14
149 -14 16 -13 38 -29 48 -36 17 -10 17 -13 4 -22 -50 -36 -219 -51 -338 -31
-174 30 -290 87 -384 188 -45 49 -58 72 -76 133 -41 139 -26 211 55 266 90 60
206 97 348 112 123 13 155 12 250 -4z m-415 -374 c0 -31 -42 -121 -56 -121
-17 0 -19 52 -3 83 27 52 59 73 59 38z m210 -10 c0 -10 3 -31 6 -47 4 -21 0
-35 -16 -52 -30 -31 -44 -18 -36 34 8 63 46 116 46 65z m250 -118 c0 -13 -2
-23 -4 -23 -2 0 -11 -3 -20 -6 -19 -7 -22 26 -5 58 9 17 13 18 20 7 5 -8 9
-24 9 -36z m-306 -522 c32 -16 60 -42 96 -90 53 -73 59 -88 35 -97 -8 -4 -18
-24 -21 -45 -4 -21 -10 -39 -13 -39 -11 0 0 -173 11 -187 17 -21 28 -5 29 40
2 49 12 102 19 97 3 -2 15 2 28 9 20 11 23 9 32 -14 6 -15 10 -48 10 -74 0
-39 -5 -52 -27 -73 -36 -34 -99 -61 -192 -82 -41 -9 -176 -42 -300 -73 -203
-50 -237 -56 -336 -57 -94 0 -116 3 -151 21 -44 23 -85 66 -109 114 -23 44
-41 173 -27 201 l11 23 0 -25 c2 -47 13 -70 33 -70 17 0 19 5 15 33 -10 53
-12 206 -3 214 4 4 14 22 21 40 25 60 143 107 308 122 95 9 120 3 97 -24 -16
-19 -6 -19 56 0 27 8 58 12 68 9 13 -4 25 1 35 14 35 45 193 52 275 13z m185
-245 c15 -27 7 -48 -14 -39 -16 5 -21 63 -7 63 5 0 14 -11 21 -24z m-643 -737
c8 -6 22 -9 32 -7 26 7 91 -39 124 -87 56 -83 61 -171 14 -269 -74 -155 -299
-245 -454 -180 -47 19 -68 39 -100 93 -22 38 -26 56 -25 117 1 40 9 88 18 110
41 98 149 198 250 231 43 14 120 10 141 -8z"/>
<path d="M5818 4418 c-2 -36 -7 -44 -25 -46 -30 -4 -32 -42 -3 -42 18 0 20 -7
20 -57 0 -59 15 -103 38 -111 9 -3 12 18 12 81 l0 85 30 11 c38 13 39 31 1 31
-28 0 -30 3 -33 42 -2 31 -8 44 -20 46 -13 3 -17 -6 -20 -40z"/>
<path d="M5626 4303 c4 -49 11 -96 16 -106 11 -22 32 -17 36 9 9 49 24 94 31
94 5 0 12 -24 16 -52 8 -61 31 -106 47 -90 13 13 -8 148 -28 180 -15 23 -43
29 -61 11 -7 -7 -15 -2 -27 15 -29 46 -36 31 -30 -61z"/>
<path d="M6402 4350 c-19 -31 -14 -72 13 -112 28 -41 33 -86 10 -94 -22 -9
-19 -44 3 -44 25 0 50 29 58 66 4 21 -1 39 -20 67 -30 43 -33 82 -9 95 22 13
9 42 -19 42 -13 0 -29 -9 -36 -20z"/>
<path d="M5950 4338 c-31 -34 -28 -121 6 -155 20 -19 31 -24 52 -18 34 8 50 8
83 0 19 -5 33 0 56 19 38 32 41 32 53 1 14 -36 51 -33 74 7 l19 31 19 -26 c29
-40 38 -33 38 26 -1 91 -40 114 -78 46 -28 -48 -39 -42 -44 21 -3 49 -28 63
-38 22 l-5 -24 -24 26 c-14 14 -35 26 -47 26 -30 0 -74 -63 -74 -106 0 -42
-28 -54 -52 -24 -24 30 -23 71 3 105 18 22 20 29 8 36 -20 13 -26 11 -49 -13z
m190 -67 c0 -34 -31 -77 -48 -67 -16 10 -15 31 3 66 20 39 45 39 45 1z"/>
<path d="M5813 3497 c-29 -7 -57 -17 -62 -22 -6 -6 -12 -40 -13 -77 -2 -51 1
-71 13 -83 15 -15 19 -15 55 4 46 25 58 26 78 5 27 -26 20 -80 -11 -102 -54
-38 -126 -47 -160 -19 -16 12 -43 2 -43 -17 0 -43 99 -60 181 -31 59 21 109
71 109 107 0 37 -22 89 -45 108 -10 9 -39 15 -69 15 -48 0 -51 2 -54 27 -4 32
16 43 98 54 39 5 50 10 48 23 -4 20 -54 23 -125 8z"/>
<path d="M6970 4939 c0 -21 111 -152 208 -246 l94 -92 -37 -22 c-212 -125
-283 -214 -292 -364 -10 -150 54 -268 192 -354 65 -41 207 -86 320 -101 152
-20 136 -5 134 -121 l-1 -100 -37 -19 c-45 -23 -158 -124 -224 -199 -84 -98
-99 -214 -40 -310 43 -69 102 -95 224 -99 178 -7 274 33 337 138 32 53 33 58
29 145 -6 156 -63 261 -172 318 -33 18 -63 37 -67 42 -10 13 -9 134 1 159 7
17 20 19 137 21 111 1 139 5 201 27 127 46 214 123 273 241 34 69 35 78 16
167 -38 176 -83 261 -182 345 -106 89 -209 140 -334 164 -30 5 -80 15 -110 20
-72 14 -165 -1 -246 -40 -34 -16 -69 -29 -78 -29 -21 0 -197 175 -259 258 -30
40 -54 62 -67 62 -11 0 -20 -5 -20 -11z m768 -309 c47 -22 62 -26 62 -15 0 45
173 -34 271 -124 78 -71 118 -143 144 -256 26 -111 25 -161 -3 -215 -29 -55
-113 -142 -167 -174 -87 -51 -235 -83 -335 -71 l-60 7 6 39 c6 35 4 39 -14 39
-15 0 -21 -9 -26 -35 -7 -35 -7 -35 -59 -35 -62 0 -204 24 -267 44 -138 44
-220 103 -269 196 -28 51 -34 76 -38 144 -5 77 -4 87 26 149 39 82 119 156
245 227 33 18 43 20 62 9 31 -16 54 -5 54 25 0 32 26 46 110 61 120 22 188 19
258 -15z m-25 -1164 c70 -29 122 -144 121 -266 0 -84 -17 -127 -68 -174 -60
-55 -109 -70 -231 -71 -127 0 -174 16 -212 74 -31 45 -32 146 -3 206 28 57
116 154 148 161 15 4 43 19 62 33 68 52 122 63 183 37z"/>
<path d="M7206 4391 c-9 -14 2 -51 15 -51 5 0 12 7 16 16 7 19 -21 51 -31 35z"/>
<path d="M7440 4328 c0 -12 -10 -32 -22 -46 -21 -21 -21 -24 -6 -33 11 -6 19
-28 23 -67 9 -85 14 -104 28 -99 8 2 14 35 17 88 l5 84 33 3 c40 4 38 25 -4
32 -19 3 -33 15 -42 33 -16 33 -32 35 -32 5z"/>
<path d="M8117 4303 c-4 -3 -7 -14 -7 -23 0 -9 -7 -25 -15 -36 -14 -18 -15
-18 -38 10 -45 55 -102 1 -73 -69 13 -31 13 -37 0 -50 -31 -30 -36 -23 -39 53
-1 25 -9 50 -19 60 -16 16 -19 16 -46 0 -30 -17 -67 -14 -121 12 -22 10 -32 9
-58 -4 -43 -23 -67 -61 -51 -81 17 -21 0 -38 -31 -33 -32 4 -36 34 -10 69 24
32 20 49 -9 49 -40 0 -65 -83 -40 -130 19 -36 45 -42 75 -18 22 17 31 19 46
10 28 -18 64 -14 84 8 22 24 33 25 56 4 16 -15 19 -13 41 20 27 42 40 41 49
-1 8 -42 15 -51 49 -58 20 -4 39 -1 60 11 35 21 36 31 13 73 -14 24 -15 33 -5
43 9 9 12 8 12 -10 0 -12 7 -23 15 -23 8 -1 21 -2 28 -3 6 0 13 -13 15 -28 4
-33 18 -37 27 -8 4 11 19 32 33 46 25 23 26 26 10 38 -11 8 -18 26 -18 45 0
29 -16 41 -33 24z m-357 -91 c0 -21 -43 -66 -53 -55 -13 13 -7 52 11 62 26 16
42 13 42 -7z"/>
<path d="M7177 4203 c6 -73 18 -106 35 -101 14 5 11 138 -4 155 -6 7 -16 13
-23 13 -10 0 -11 -17 -8 -67z"/>
<path d="M7273 4194 c6 -59 23 -77 44 -46 22 32 32 27 39 -18 7 -43 18 -58 29
-39 11 16 -4 114 -20 135 -12 17 -17 17 -36 6 -15 -10 -24 -11 -32 -3 -22 22
-30 10 -24 -35z"/>
<path d="M7510 3355 c-20 -25 -1 -38 46 -31 24 3 46 1 49 -3 6 -11 -42 -51
-60 -51 -7 0 -18 -7 -25 -15 -18 -22 6 -48 38 -40 57 14 78 -18 43 -64 -14
-18 -32 -26 -67 -30 -40 -5 -49 -10 -49 -26 0 -17 8 -20 49 -23 47 -3 50 -1
97 47 27 28 49 59 49 69 0 9 -12 30 -26 45 l-26 28 22 24 c27 28 23 55 -10 72
-35 18 -115 17 -130 -2z"/>
<path d="M4187 4404 c-4 -4 -7 -17 -7 -30 0 -48 -30 -75 -44 -38 -4 11 -18 14
-58 12 -53 -3 -53 -3 -78 -53 l-25 -50 -3 35 c-5 58 -22 90 -48 90 -19 0 -25
-8 -34 -41 -13 -46 -30 -47 -42 -3 -10 33 -65 81 -78 68 -5 -5 -12 -61 -16
-124 -6 -99 -4 -117 9 -129 21 -17 37 -6 37 24 0 31 17 41 25 15 3 -11 15 -25
25 -30 15 -8 22 -5 34 12 9 12 16 28 16 35 0 20 20 15 39 -8 24 -30 87 -50
119 -38 19 7 29 6 43 -7 29 -26 36 -9 31 71 -3 49 -1 75 6 75 14 0 24 -33 26
-85 2 -45 23 -82 38 -67 5 5 11 33 15 63 3 30 14 66 24 80 16 23 17 28 4 39
-7 6 -15 28 -17 48 -3 35 -24 53 -41 36z m-117 -133 c0 -20 -39 -74 -40 -55 0
20 22 74 31 74 5 0 9 -9 9 -19z"/>
<path d="M4782 4387 c-43 -46 -19 -75 34 -41 41 27 52 5 30 -59 -21 -63 -18
-91 10 -95 17 -2 25 7 42 56 34 92 29 121 -25 150 -34 18 -67 14 -91 -11z"/>
<path d="M4376 4378 c-12 -37 -14 -240 -4 -263 14 -30 42 -32 61 -5 13 19 14
19 34 -4 18 -20 30 -24 81 -24 l59 0 0 42 c0 22 3 58 8 80 6 28 4 40 -6 47
-25 16 -55 10 -79 -16 -20 -22 -25 -23 -39 -11 -9 8 -27 16 -41 18 -23 3 -25
7 -26 63 -1 83 -2 85 -24 85 -11 0 -22 -6 -24 -12z"/>
<path d="M4275 4254 c-31 -33 -40 -77 -25 -115 21 -51 91 -51 98 0 3 19 0 21
-22 15 -23 -5 -26 -3 -26 20 0 16 11 38 26 53 14 14 23 31 20 39 -9 22 -45 16
-71 -12z"/>
<path d="M4672 4250 c-19 -31 -15 -84 8 -105 11 -10 20 -30 20 -45 0 -35 25
-58 48 -43 27 17 25 41 -7 90 -36 54 -36 56 -15 78 9 8 13 22 10 30 -8 22 -49
18 -64 -5z"/>
<path d="M4832 4068 c3 -24 34 -36 49 -21 16 16 -2 43 -28 43 -20 0 -24 -4
-21 -22z"/>
<path d="M957 3413 c-4 -3 -7 -47 -7 -97 -1 -88 -1 -90 -18 -68 -39 54 -85
102 -97 102 -35 0 -45 -30 -45 -135 0 -89 3 -106 18 -113 33 -17 42 -3 42 64
0 35 4 64 9 64 5 0 31 -29 57 -65 49 -67 88 -90 105 -64 5 8 6 28 3 44 -4 17
-8 81 -10 142 -1 62 -5 117 -9 123 -7 11 -38 14 -48 3z"/>
<path d="M6370 2654 c-6 -14 -10 -30 -10 -35 0 -5 -18 -9 -41 -9 -33 0 -40 -3
-37 -17 2 -11 15 -20 33 -23 30 -5 30 -6 30 -67 0 -36 5 -67 12 -74 18 -18 21
-11 30 61 7 61 10 65 33 65 19 0 24 -5 22 -20 -1 -11 12 -37 29 -57 35 -44 78
-50 119 -18 27 21 50 26 50 10 0 -5 9 -10 20 -10 17 0 20 7 20 44 0 34 5 48
21 60 26 18 19 52 -9 41 -9 -4 -29 -10 -44 -13 -25 -4 -28 -9 -28 -42 0 -33
-4 -40 -34 -54 -65 -31 -89 -17 -46 27 37 38 39 71 4 93 -24 16 -26 16 -55 -5
-18 -13 -41 -21 -57 -19 -22 2 -27 8 -29 33 0 17 -2 36 -2 43 -2 21 -21 13
-31 -14z m160 -82 c0 -13 -12 -22 -22 -16 -10 6 -1 24 13 24 5 0 9 -4 9 -8z"/>
<path d="M1347 2613 c-4 -3 -7 -21 -7 -40 0 -35 -3 -38 -62 -48 -34 -5 -37 -4
-40 22 -2 22 -8 28 -28 28 -20 0 -26 -6 -30 -30 -4 -23 -11 -31 -30 -33 -14
-2 -30 -8 -36 -13 -7 -6 -31 -5 -63 3 -48 11 -53 10 -87 -14 -33 -24 -38 -25
-64 -11 -34 17 -121 27 -136 16 -7 -5 -8 -40 -3 -105 9 -118 15 -138 40 -138
19 0 23 11 19 62 -1 22 4 30 26 38 14 6 39 20 55 31 26 18 31 19 50 5 14 -10
36 -13 69 -9 29 3 50 1 54 -6 8 -12 46 -15 46 -4 0 4 -5 21 -12 39 -15 42 0
62 42 56 27 -4 30 -8 30 -41 0 -80 47 -84 52 -4 3 48 3 48 46 57 23 5 45 6 48
3 3 -3 8 -23 11 -44 6 -42 18 -63 39 -63 9 0 14 11 14 30 0 17 3 30 6 30 3 0
17 -13 31 -30 20 -24 33 -30 65 -30 21 0 48 5 58 10 14 7 25 7 38 -1 31 -19
52 -4 52 36 0 29 5 39 30 53 31 18 39 37 18 45 -7 2 -41 2 -75 -1 -35 -3 -63
-1 -63 4 0 6 -14 18 -30 28 -26 15 -36 16 -66 6 -39 -13 -70 1 -59 28 10 26
-29 55 -48 35z m143 -117 c0 -3 -4 -8 -10 -11 -5 -3 -10 -1 -10 4 0 6 5 11 10
11 6 0 10 -2 10 -4z m-617 -54 c11 -6 -23 -42 -40 -42 -13 0 -19 41 -7 53 5 5
27 0 47 -11z m157 8 c0 -12 -28 -25 -36 -17 -9 9 6 27 22 27 8 0 14 -5 14 -10z
m510 -4 c0 -15 -29 -30 -39 -20 -3 3 3 12 13 20 24 17 26 17 26 0z"/>
<path d="M6770 2570 c-27 -6 -35 -28 -26 -67 6 -21 11 -24 35 -18 17 4 32 2
36 -5 4 -7 19 -9 35 -5 16 4 31 2 35 -5 10 -17 35 8 35 35 0 13 -9 33 -19 46
l-19 24 -23 -20 c-16 -14 -23 -16 -26 -7 -7 19 -35 30 -63 22z"/>
<path d="M1810 2515 c-9 -11 -16 -13 -24 -5 -5 5 -17 10 -27 10 -12 0 -18 -13
-22 -52 -6 -45 -4 -56 14 -73 l20 -20 24 27 c13 16 28 35 33 44 12 22 42 11
42 -15 0 -24 35 -47 45 -30 11 17 -4 75 -26 103 -23 29 -60 34 -79 11z"/>
<path d="M6745 2348 c-93 -15 -147 -18 -240 -13 l-120 6 21 -21 c48 -49 484
-12 484 40 0 12 4 12 -145 -12z"/>
<path d="M1470 2265 c-52 -8 -158 -19 -235 -25 -215 -17 -250 -23 -250 -40 0
-13 17 -14 110 -12 61 2 166 10 235 18 69 8 166 19 215 24 129 14 155 20 155
36 0 18 -95 17 -230 -1z"/>
<path d="M3820 2084 c-234 -22 -336 -38 -352 -57 -16 -16 -18 -41 -18 -173 0
-96 -4 -155 -10 -159 -16 -10 -6 -115 11 -126 8 -5 23 -7 34 -3 11 3 124 8
250 10 127 3 245 10 263 16 41 12 45 45 5 50 -23 2 -28 8 -27 28 17 358 17
376 -7 399 -23 21 -50 24 -149 15z m113 -68 c9 -22 -3 -335 -13 -361 -8 -22
-12 -23 -212 -27 -112 -3 -205 -4 -207 -2 -2 2 -3 16 -2 31 1 16 3 95 5 176 2
81 7 151 11 155 12 12 228 40 321 41 71 1 93 -2 97 -13z"/>
<path d="M3764 1926 c-3 -9 -3 -36 0 -60 10 -61 -7 -65 -44 -11 -32 46 -68 69
-93 59 -19 -7 -37 -180 -21 -202 20 -28 41 -7 47 48 4 29 9 55 12 58 3 3 30
-18 59 -47 72 -71 90 -68 94 19 4 84 -9 144 -31 148 -9 2 -20 -4 -23 -12z"/>
<path d="M4763 2049 c-45 -13 -119 -87 -144 -146 -12 -26 -23 -75 -26 -108 -4
-50 -1 -67 19 -105 38 -71 75 -90 173 -90 67 0 90 4 132 25 73 37 137 96 152
143 12 35 11 43 -8 79 -23 46 -87 105 -146 135 -22 11 -49 31 -60 43 -25 29
-51 36 -92 24z m126 -100 c24 -11 63 -39 87 -61 37 -34 44 -46 44 -79 0 -81
-123 -169 -235 -169 -73 0 -108 19 -129 70 -20 50 -20 82 -1 147 18 62 42 86
57 59 10 -17 13 -16 44 18 39 43 69 46 133 15z"/>
<path d="M4790 1881 c-22 -6 -25 -12 -25 -56 0 -48 1 -50 30 -53 50 -5 59 -10
45 -27 -15 -18 -51 -20 -67 -4 -16 16 -43 3 -43 -20 0 -48 87 -51 148 -4 43
32 40 61 -10 88 -21 11 -38 23 -38 27 0 4 15 11 32 16 18 4 34 16 36 25 3 14
-4 17 -40 16 -24 -1 -54 -4 -68 -8z"/>
<path d="M4273 1863 c-76 -4 -99 -21 -69 -51 12 -12 24 -13 80 -2 65 12 94 30
81 50 -3 5 -9 9 -13 8 -4 -1 -39 -4 -79 -5z"/>
<path d="M4122 1828 c2 -13 10 -23 18 -23 8 0 16 10 18 23 3 17 -2 22 -18 22
-16 0 -21 -5 -18 -22z"/>
<path d="M4270 1763 c-62 -5 -79 -15 -60 -38 16 -19 70 -19 115 -1 36 15 49
47 18 44 -10 -1 -43 -3 -73 -5z"/>
<path d="M4102 1738 c2 -15 10 -23 23 -23 13 0 21 8 23 23 3 18 -1 22 -23 22
-22 0 -26 -4 -23 -22z"/>
<path d="M5475 1493 c-86 -8 -434 -44 -503 -53 -102 -12 -172 -49 -266 -139
-85 -82 -116 -136 -116 -202 0 -86 57 -143 185 -187 91 -31 130 -35 285 -29
183 6 169 15 162 -104 l-4 -77 -50 -23 c-151 -70 -188 -264 -66 -339 25 -15
51 -20 104 -20 103 0 189 37 267 115 49 50 30 149 -41 203 -19 15 -44 37 -55
50 -13 14 -32 22 -53 22 -18 0 -36 6 -41 13 -4 6 -8 49 -8 95 0 65 3 83 15 87
22 7 163 25 240 30 88 7 240 24 325 37 129 20 250 71 275 117 38 73 -31 226
-112 246 -22 6 -28 4 -28 -9 0 -9 11 -21 25 -28 22 -10 52 -60 69 -115 4 -13
1 -36 -9 -55 -33 -70 -178 -111 -485 -138 -69 -6 -197 -21 -285 -33 -100 -13
-213 -22 -300 -22 -124 0 -148 3 -208 25 -162 58 -198 157 -95 257 24 23 54
43 68 45 19 2 26 10 30 33 7 39 76 78 168 93 332 56 715 73 862 38 130 -30
196 -56 238 -91 43 -38 62 -44 62 -21 0 23 -60 74 -115 100 -128 59 -369 95
-540 79z m-104 -864 c36 -23 52 -41 65 -76 16 -40 16 -48 3 -71 -49 -87 -247
-147 -316 -96 -26 20 -28 26 -28 91 0 61 4 74 28 106 15 20 36 37 46 37 11 0
29 9 42 20 38 31 102 26 160 -11z"/>
<path d="M5203 584 c-3 -9 -1 -25 5 -35 7 -10 12 -24 12 -31 0 -7 9 -19 20
-26 31 -19 24 -32 -19 -32 -44 0 -59 -20 -34 -46 26 -26 101 -13 131 21 17 20
21 34 17 49 -4 12 -7 35 -6 53 1 22 -6 37 -21 47 -30 22 -97 21 -105 0z"/>
<path d="M3775 1353 c-110 -23 -190 -35 -243 -35 -52 0 -64 -4 -73 -20 -7 -12
-9 -94 -7 -224 2 -168 6 -207 18 -215 35 -23 394 28 508 73 62 25 77 53 29 53
-16 1 -32 7 -37 15 -5 8 -6 85 -3 172 5 120 3 161 -7 173 -9 11 -31 15 -89 14
-42 -1 -85 -3 -96 -6z m134 -47 c9 -10 10 -59 4 -182 l-8 -168 -30 -8 c-47
-13 -285 -48 -332 -48 l-43 0 -1 43 c-3 138 2 302 10 311 6 7 25 13 43 14 18
2 85 11 148 22 63 11 131 21 150 23 19 2 38 5 41 5 4 1 12 -4 18 -12z"/>
<path d="M3763 1205 c-10 -14 -26 -36 -35 -48 l-17 -22 -35 38 c-65 69 -92 37
-31 -37 l35 -43 -30 -42 c-17 -23 -28 -46 -25 -51 11 -18 37 -11 57 15 25 32
35 31 69 -1 17 -16 34 -24 43 -21 22 9 20 21 -9 55 -32 38 -31 44 5 103 26 43
28 50 14 64 -20 19 -20 19 -41 -10z"/>
<path d="M5885 1263 c-3 -15 -11 -34 -17 -40 -15 -18 -45 -16 -57 4 -13 24
-71 19 -93 -8 -20 -24 -24 -69 -6 -87 8 -8 8 -15 -2 -26 -17 -22 -5 -46 23
-46 38 0 53 25 39 64 -14 39 -15 66 -3 66 5 0 11 -7 15 -15 3 -9 18 -15 36
-15 28 0 30 -3 30 -35 0 -55 39 -44 53 16 4 14 18 31 31 37 23 10 24 14 14 44
-16 50 -24 63 -40 66 -10 2 -18 -7 -23 -25z"/>
<path d="M5043 1260 c-3 -10 -14 -22 -24 -25 -23 -7 -24 -18 -5 -34 10 -9 13
-27 9 -71 -5 -56 5 -90 27 -90 4 0 13 34 19 75 11 69 15 75 39 81 47 10 52 13
52 29 0 10 -10 15 -30 15 -19 0 -34 7 -42 20 -16 26 -38 26 -45 0z"/>
<path d="M5222 1224 c-55 -66 -51 -127 10 -164 38 -23 38 -23 58 -10 13 9 10
15 -18 38 -41 34 -42 67 -2 111 34 36 35 54 3 59 -14 2 -31 -9 -51 -34z"/>
<path d="M5351 1194 c-30 -38 -31 -95 -4 -126 40 -45 123 5 123 72 0 72 -78
107 -119 54z m69 -49 c0 -14 -7 -28 -15 -32 -22 -8 -27 0 -19 31 8 34 34 34
34 1z"/>
<path d="M4744 1138 c-12 -104 -7 -131 19 -109 16 13 40 142 31 165 -3 9 -14
16 -24 16 -14 0 -19 -13 -26 -72z"/>
<path d="M4885 1200 c-4 -6 -15 -8 -26 -5 -25 8 -30 -8 -21 -70 9 -61 33 -72
57 -24 20 37 32 29 37 -25 3 -37 29 -69 44 -54 3 4 3 39 -1 79 -5 49 -13 77
-26 90 -21 21 -54 25 -64 9z"/>
<path d="M4110 1175 c0 -22 4 -26 23 -23 14 2 22 10 22 23 0 13 -8 21 -22 23
-19 3 -23 -1 -23 -23z"/>
<path d="M5583 1178 c-18 -18 -24 -19 -37 -9 -9 7 -23 10 -32 7 -13 -5 -14
-14 -9 -49 13 -75 41 -88 74 -32 22 38 41 46 41 16 0 -24 34 -66 47 -58 6 4 8
29 5 59 -7 83 -45 111 -89 66z"/>
<path d="M4252 1183 c-59 -4 -63 -6 -60 -26 3 -20 8 -22 73 -21 93 1 125 9
125 34 0 22 8 21 -138 13z"/>
<path d="M4280 1105 c-53 -12 -67 -28 -37 -47 26 -16 127 21 127 47 0 17 -13
17 -90 0z"/>
<path d="M4116 1101 c-10 -16 5 -41 26 -41 14 0 19 6 16 22 -3 24 -32 36 -42
19z"/>
</g>
</svg>
